<svg xmlns:xlink="http://www.w3.org/1999/xlink" width="67.591ex" height="2.843ex" style="font-size: 15px; vertical-align: -0.838ex;" viewBox="0 -863.1 29101.6 1223.9" role="img" focusable="false" xmlns="http://www.w3.org/2000/svg">
<defs>
<path stroke-width="1" id="E1-MJMAIN-5B" d="M118 -250V750H255V710H158V-210H255V-250H118Z"></path>
<path stroke-width="1" id="E1-MJMATHI-61" d="M33 157Q33 258 109 349T280 441Q331 441 370 392Q386 422 416 422Q429 422 439 414T449 394Q449 381 412 234T374 68Q374 43 381 35T402 26Q411 27 422 35Q443 55 463 131Q469 151 473 152Q475 153 483 153H487Q506 153 506 144Q506 138 501 117T481 63T449 13Q436 0 417 -8Q409 -10 393 -10Q359 -10 336 5T306 36L300 51Q299 52 296 50Q294 48 292 46Q233 -10 172 -10Q117 -10 75 30T33 157ZM351 328Q351 334 346 350T323 385T277 405Q242 405 210 374T160 293Q131 214 119 129Q119 126 119 118T118 106Q118 61 136 44T179 26Q217 26 254 59T298 110Q300 114 325 217T351 328Z"></path>
<path stroke-width="1" id="E1-MJMAINB-58" d="M327 0Q306 3 174 3Q52 3 43 0H33V62H98L162 63L360 333L157 624H48V686H59Q80 683 217 683Q368 683 395 686H408V624H335L393 540L452 458L573 623Q573 624 528 624H483V686H494Q515 683 646 683Q769 683 778 686H787V624H658L575 511Q493 398 493 397L508 376Q522 356 553 312T611 229L727 62H835V0H824Q803 3 667 3Q516 3 489 0H476V62H513L549 63L401 274L247 63Q247 62 292 62H338V0H327Z"></path>
<path stroke-width="1" id="E1-MJMAIN-2B" d="M56 237T56 250T70 270H369V420L370 570Q380 583 389 583Q402 583 409 568V270H707Q722 262 722 250T707 230H409V-68Q401 -82 391 -82H389H387Q375 -82 369 -68V230H70Q56 237 56 250Z"></path>
<path stroke-width="1" id="E1-MJMATHI-62" d="M73 647Q73 657 77 670T89 683Q90 683 161 688T234 694Q246 694 246 685T212 542Q204 508 195 472T180 418L176 399Q176 396 182 402Q231 442 283 442Q345 442 383 396T422 280Q422 169 343 79T173 -11Q123 -11 82 27T40 150V159Q40 180 48 217T97 414Q147 611 147 623T109 637Q104 637 101 637H96Q86 637 83 637T76 640T73 647ZM336 325V331Q336 405 275 405Q258 405 240 397T207 376T181 352T163 330L157 322L136 236Q114 150 114 114Q114 66 138 42Q154 26 178 26Q211 26 245 58Q270 81 285 114T318 219Q336 291 336 325Z"></path>
<path stroke-width="1" id="E1-MJMAINB-59" d="M605 0Q581 3 434 3Q286 3 262 0H250V62H358V275L126 624H19V686H30Q54 683 189 683Q361 685 370 686H383V624H308L319 608Q330 591 353 556T396 491L484 359L660 623Q660 624 623 624H585V686H595Q613 683 728 683Q832 683 841 686H849V624H742L509 274V62H618V0H605Z"></path>
<path stroke-width="1" id="E1-MJMAIN-2C" d="M78 35T78 60T94 103T137 121Q165 121 187 96T210 8Q210 -27 201 -60T180 -117T154 -158T130 -185T117 -194Q113 -194 104 -185T95 -172Q95 -168 106 -156T131 -126T157 -76T173 -3V9L172 8Q170 7 167 6T161 3T152 1T140 0Q113 0 96 17Z"></path>
<path stroke-width="1" id="E1-MJMAINB-5A" d="M80 430L92 686H358Q624 686 628 684Q638 679 638 656Q638 640 637 639Q637 638 445 353Q401 288 351 214T277 103L253 67L256 66Q258 66 265 66T279 66T298 66H343Q380 66 406 68T464 81T518 110T557 164T579 250Q583 278 583 298Q583 299 614 299H645V291Q643 281 636 150T627 8V0H353Q79 0 75 2Q64 7 64 31Q64 48 66 52L259 340L451 623Q451 624 384 624Q294 623 259 612Q155 581 143 446Q142 440 142 432V430H80Z"></path>
<path stroke-width="1" id="E1-MJMAIN-5D" d="M22 710V750H159V-250H22V-210H119V710H22Z"></path>
<path stroke-width="1" id="E1-MJMAIN-3D" d="M56 347Q56 360 70 367H707Q722 359 722 347Q722 336 708 328L390 327H72Q56 332 56 347ZM56 153Q56 168 72 173H708Q722 163 722 153Q722 140 707 133H70Q56 140 56 153Z"></path>
</defs>
<g stroke="currentColor" fill="currentColor" stroke-width="0" transform="matrix(1 0 0 -1 0 0)">
 <use xlink:href="#E1-MJMAIN-5B" x="0" y="0"></use>
 <use xlink:href="#E1-MJMATHI-61" x="278" y="0"></use>
 <use xlink:href="#E1-MJMAINB-58" x="808" y="0"></use>
 <use xlink:href="#E1-MJMAIN-2B" x="1899" y="0"></use>
 <use xlink:href="#E1-MJMATHI-62" x="2900" y="0"></use>
 <use xlink:href="#E1-MJMAINB-59" x="3329" y="0"></use>
 <use xlink:href="#E1-MJMAIN-2C" x="4199" y="0"></use>
 <use xlink:href="#E1-MJMAINB-5A" x="4894" y="0"></use>
 <use xlink:href="#E1-MJMAIN-5D" x="5598" y="0"></use>
 <use xlink:href="#E1-MJMAIN-3D" x="6154" y="0"></use>
 <use xlink:href="#E1-MJMATHI-61" x="7210" y="0"></use>
 <use xlink:href="#E1-MJMAIN-5B" x="7740" y="0"></use>
 <use xlink:href="#E1-MJMAINB-58" x="8018" y="0"></use>
 <use xlink:href="#E1-MJMAIN-2C" x="8888" y="0"></use>
 <use xlink:href="#E1-MJMAINB-5A" x="9333" y="0"></use>
 <use xlink:href="#E1-MJMAIN-5D" x="10036" y="0"></use>
 <use xlink:href="#E1-MJMAIN-2B" x="10537" y="0"></use>
 <use xlink:href="#E1-MJMAIN-5B" x="11538" y="0"></use>
 <use xlink:href="#E1-MJMAINB-59" x="11816" y="0"></use>
 <use xlink:href="#E1-MJMAIN-2C" x="12686" y="0"></use>
 <use xlink:href="#E1-MJMAINB-5A" x="13131" y="0"></use>
 <use xlink:href="#E1-MJMAIN-5D" x="13834" y="0"></use>
 <use xlink:href="#E1-MJMAIN-2C" x="14113" y="0"></use>
 <use xlink:href="#E1-MJMAIN-5B" x="14808" y="0"></use>
 <use xlink:href="#E1-MJMAINB-5A" x="15087" y="0"></use>
 <use xlink:href="#E1-MJMAIN-2C" x="15790" y="0"></use>
 <use xlink:href="#E1-MJMATHI-61" x="16235" y="0"></use>
 <use xlink:href="#E1-MJMAINB-58" x="16765" y="0"></use>
 <use xlink:href="#E1-MJMAIN-2B" x="17856" y="0"></use>
 <use xlink:href="#E1-MJMATHI-62" x="18857" y="0"></use>
 <use xlink:href="#E1-MJMAINB-59" x="19287" y="0"></use>
 <use xlink:href="#E1-MJMAIN-5D" x="20156" y="0"></use>
 <use xlink:href="#E1-MJMAIN-3D" x="20712" y="0"></use>
 <use xlink:href="#E1-MJMATHI-61" x="21769" y="0"></use>
 <use xlink:href="#E1-MJMAIN-5B" x="22298" y="0"></use>
 <use xlink:href="#E1-MJMAINB-5A" x="22577" y="0"></use>
 <use xlink:href="#E1-MJMAIN-2C" x="23280" y="0"></use>
 <use xlink:href="#E1-MJMAINB-58" x="23725" y="0"></use>
 <use xlink:href="#E1-MJMAIN-5D" x="24595" y="0"></use>
 <use xlink:href="#E1-MJMAIN-2B" x="25096" y="0"></use>
 <use xlink:href="#E1-MJMATHI-62" x="26096" y="0"></use>
 <use xlink:href="#E1-MJMAIN-5B" x="26526" y="0"></use>
 <use xlink:href="#E1-MJMAINB-5A" x="26804" y="0"></use>
 <use xlink:href="#E1-MJMAIN-2C" x="27508" y="0"></use>
 <use xlink:href="#E1-MJMAINB-59" x="27953" y="0"></use>
 <use xlink:href="#E1-MJMAIN-5D" x="28823" y="0"></use>
</g>
</svg>