<svg xmlns:xlink="http://www.w3.org/1999/xlink" width="29.182ex" height="3.009ex" style="font-size: 15px; vertical-align: -0.671ex;" viewBox="0 -1006.6 12564.3 1295.7" role="img" focusable="false" xmlns="http://www.w3.org/2000/svg">
<defs>
<path stroke-width="1" id="E1-MJMAINB-45" d="M723 286Q721 284 700 145T677 3V0H39V62H147V618H39V680H660V676Q662 670 675 552T691 428V424H629V428Q629 429 627 448T618 494T601 541Q574 593 527 605T382 618H374H304V384H336Q338 384 347 384T361 384T376 386T392 390T407 397T421 407T432 423Q442 444 443 482V501H505V205H443V224Q442 258 435 278T411 307T380 318T336 322H304V62H375H394Q429 62 449 62T497 66T541 76T577 95T609 126T632 170T651 232Q661 287 661 289H723V286Z"></path>
<path stroke-width="1" id="E1-MJMAIN-3D" d="M56 347Q56 360 70 367H707Q722 359 722 347Q722 336 708 328L390 327H72Q56 332 56 347ZM56 153Q56 168 72 173H708Q722 163 722 153Q722 140 707 133H70Q56 140 56 153Z"></path>
<path stroke-width="1" id="E1-MJMAINB-74" d="M272 49Q320 49 320 136V145V177H382V143Q382 106 380 99Q374 62 349 36T285 -2L272 -5H247Q173 -5 134 27Q109 46 102 74T94 160Q94 171 94 199T95 245V382H21V433H25Q58 433 90 456Q121 479 140 523T162 621V635H224V444H363V382H224V239V207V149Q224 98 228 81T249 55Q261 49 272 49Z"></path>
<path stroke-width="1" id="E1-MJMAIN-2227" d="M318 591Q325 598 333 598Q344 598 348 591Q349 590 414 445T545 151T611 -4Q609 -22 591 -22Q588 -22 586 -21T581 -20T577 -17T575 -13T572 -9T570 -4L333 528L96 -4Q87 -20 80 -21Q78 -22 75 -22Q57 -22 55 -4Q55 2 120 150T251 444T318 591Z"></path>
<path stroke-width="1" id="E1-MJMAINB-52" d="M394 0Q370 3 222 3Q75 3 51 0H39V62H147V624H39V686H234Q256 686 299 686T362 687Q479 687 554 669T681 593Q716 550 716 497Q716 390 568 338Q569 337 572 336T577 332Q605 317 623 300T650 258T662 218T668 172Q678 98 689 76Q707 40 748 40Q770 40 780 54T795 88T801 111Q805 117 827 117H831Q846 117 852 113T858 92Q857 78 852 63T834 30T797 1T739 -11Q630 -11 580 12T511 87Q506 104 506 168Q506 170 506 178T507 194Q507 289 438 313Q424 318 356 318H298V62H406V0H394ZM366 369Q459 370 490 381Q548 402 548 476V498V517Q548 578 513 600Q479 624 392 624H358H298V369H366Z"></path>
<path stroke-width="1" id="E1-MJMAIN-2C" d="M78 35T78 60T94 103T137 121Q165 121 187 96T210 8Q210 -27 201 -60T180 -117T154 -158T130 -185T117 -194Q113 -194 104 -185T95 -172Q95 -168 106 -156T131 -126T157 -76T173 -3V9L172 8Q170 7 167 6T161 3T152 1T140 0Q113 0 96 17Z"></path>
<path stroke-width="1" id="E1-MJMAINB-46" d="M425 0L228 3Q63 3 51 0H39V62H147V618H39V680H644V676Q647 670 659 552T675 428V424H613Q613 433 605 477Q599 511 589 535T562 574T530 599T488 612T441 617T387 618H368H304V371H333Q389 373 411 390T437 468V488H499V192H437V212Q436 244 430 263T408 292T378 305T333 309H304V62H439V0H425Z"></path>
<path stroke-width="1" id="E1-MJMAINB-4B" d="M400 0Q376 3 226 3Q75 3 51 0H39V62H147V624H39V686H51Q75 683 226 683Q376 683 400 686H412V624H304V338L472 483L634 624H565V686H576Q597 683 728 683Q814 683 829 686H836V624H730L614 524Q507 432 497 422Q496 422 498 418T514 395T553 342T627 241L759 63L805 62H852V0H842Q830 3 701 3Q550 3 526 0H513V62H549Q584 62 584 63Q583 65 486 196T388 328L304 256V62H412V0H400Z"></path>
<path stroke-width="1" id="E1-MJMAIN-2212" d="M84 237T84 250T98 270H679Q694 262 694 250T679 230H98Q84 237 84 250Z"></path>
<path stroke-width="1" id="E1-MJMATHI-54" d="M40 437Q21 437 21 445Q21 450 37 501T71 602L88 651Q93 669 101 677H569H659Q691 677 697 676T704 667Q704 661 687 553T668 444Q668 437 649 437Q640 437 637 437T631 442L629 445Q629 451 635 490T641 551Q641 586 628 604T573 629Q568 630 515 631Q469 631 457 630T439 622Q438 621 368 343T298 60Q298 48 386 46Q418 46 427 45T436 36Q436 31 433 22Q429 4 424 1L422 0Q419 0 415 0Q410 0 363 1T228 2Q99 2 64 0H49Q43 6 43 9T45 27Q49 40 55 46H83H94Q174 46 189 55Q190 56 191 56Q196 59 201 76T241 233Q258 301 269 344Q339 619 339 625Q339 630 310 630H279Q212 630 191 624Q146 614 121 583T67 467Q60 445 57 441T43 437H40Z"></path>
<path stroke-width="1" id="E1-MJMAIN-31" d="M213 578L200 573Q186 568 160 563T102 556H83V602H102Q149 604 189 617T245 641T273 663Q275 666 285 666Q294 666 302 660V361L303 61Q310 54 315 52T339 48T401 46H427V0H416Q395 3 257 3Q121 3 100 0H88V46H114Q136 46 152 46T177 47T193 50T201 52T207 57T213 61V578Z"></path>
</defs>
<g stroke="currentColor" fill="currentColor" stroke-width="0" transform="matrix(1 0 0 -1 0 0)">
 <use xlink:href="#E1-MJMAINB-45" x="0" y="0"></use>
 <use xlink:href="#E1-MJMAIN-3D" x="1034" y="0"></use>
<g transform="translate(2090,0)">
 <use xlink:href="#E1-MJMAINB-74" x="0" y="0"></use>
 <use transform="scale(0.707)" xlink:href="#E1-MJMAIN-2227" x="632" y="583"></use>
</g>
 <use xlink:href="#E1-MJMAINB-52" x="3110" y="0"></use>
 <use xlink:href="#E1-MJMAIN-2C" x="3972" y="0"></use>
 <use xlink:href="#E1-MJMAINB-46" x="4667" y="0"></use>
 <use xlink:href="#E1-MJMAIN-3D" x="5669" y="0"></use>
<g transform="translate(6726,0)">
 <use xlink:href="#E1-MJMAINB-4B" x="0" y="0"></use>
<g transform="translate(901,413)">
 <use transform="scale(0.707)" xlink:href="#E1-MJMAIN-2212" x="0" y="0"></use>
 <use transform="scale(0.707)" xlink:href="#E1-MJMATHI-54" x="778" y="0"></use>
</g>
</g>
<g transform="translate(8776,0)">
 <use xlink:href="#E1-MJMAINB-74" x="0" y="0"></use>
 <use transform="scale(0.707)" xlink:href="#E1-MJMAIN-2227" x="632" y="583"></use>
</g>
 <use xlink:href="#E1-MJMAINB-52" x="9795" y="0"></use>
<g transform="translate(10658,0)">
 <use xlink:href="#E1-MJMAINB-4B" x="0" y="0"></use>
<g transform="translate(901,413)">
 <use transform="scale(0.707)" xlink:href="#E1-MJMAIN-2212" x="0" y="0"></use>
 <use transform="scale(0.707)" xlink:href="#E1-MJMAIN-31" x="778" y="0"></use>
</g>
</g>
</g>
</svg>