<svg xmlns:xlink="http://www.w3.org/1999/xlink" width="11.697ex" height="2.509ex" style="font-size: 15px; vertical-align: -0.671ex;" viewBox="0 -791.3 5036 1080.4" role="img" focusable="false" xmlns="http://www.w3.org/2000/svg">
<defs>
<path stroke-width="1" id="E1-MJMAINB-65" d="M32 225Q32 332 102 392T272 452H283Q382 452 436 401Q494 343 494 243Q494 226 486 222T440 217Q431 217 394 217T327 218H175V209Q175 177 179 154T196 107T236 69T306 50Q312 49 323 49Q376 49 410 85Q421 99 427 111T434 127T442 133T463 135H468Q494 135 494 117Q494 110 489 97T468 66T431 32T373 5T292 -6Q181 -6 107 55T32 225ZM383 276Q377 346 348 374T280 402Q253 402 230 390T195 357Q179 331 176 279V266H383V276Z"></path>
<path stroke-width="1" id="E1-MJMAIN-3D" d="M56 347Q56 360 70 367H707Q722 359 722 347Q722 336 708 328L390 327H72Q56 332 56 347ZM56 153Q56 168 72 173H708Q722 163 722 153Q722 140 707 133H70Q56 140 56 153Z"></path>
<path stroke-width="1" id="E1-MJMAINB-7A" d="M48 262Q48 264 54 349T60 436V444H252Q289 444 336 444T394 445Q441 445 450 441T459 418Q459 406 458 404Q456 399 327 229T194 55H237Q260 56 268 56T297 58T325 65T348 77T370 98T384 128T395 170Q400 197 400 216Q400 217 431 217H462V211Q461 208 453 108T444 6V0H245Q46 0 43 2Q32 7 32 28V33Q32 41 40 52T84 112Q129 170 164 217L298 393H256Q189 392 165 380Q124 360 115 303Q110 280 110 256Q110 254 79 254H48V262Z"></path>
<path stroke-width="1" id="E1-MJMAIN-2212" d="M84 237T84 250T98 270H679Q694 262 694 250T679 230H98Q84 237 84 250Z"></path>
<path stroke-width="1" id="E1-MJMAINB-54" d="M41 425Q41 426 51 545T62 669V675H737V669Q738 665 748 546T758 425V419H696V425Q687 517 669 555T595 607Q578 612 522 613H478V62H631V0H615Q585 3 399 3Q214 3 184 0H168V62H321V613H277H263Q164 613 134 561Q113 527 103 425V419H41V425Z"></path>
<path stroke-width="1" id="E1-MJMAINB-70" d="M32 442L123 446Q214 450 215 450H221V409Q222 409 229 413T251 423T284 436T328 446T382 450Q480 450 540 388T600 223Q600 128 539 61T361 -6H354Q292 -6 236 28L227 34V-132H296V-194H287Q269 -191 163 -191Q56 -191 38 -194H29V-132H98V113V284Q98 330 97 348T93 370T83 376Q69 380 42 380H29V442H32ZM457 224Q457 303 427 349T350 395Q282 395 235 352L227 345V104L233 97Q274 45 337 45Q383 45 420 86T457 224Z"></path>
</defs>
<g stroke="currentColor" fill="currentColor" stroke-width="0" transform="matrix(1 0 0 -1 0 0)">
 <use xlink:href="#E1-MJMAINB-65" x="0" y="0"></use>
 <use xlink:href="#E1-MJMAIN-3D" x="805" y="0"></use>
 <use xlink:href="#E1-MJMAINB-7A" x="1861" y="0"></use>
 <use xlink:href="#E1-MJMAIN-2212" x="2595" y="0"></use>
<g transform="translate(3596,0)">
 <use xlink:href="#E1-MJMAINB-54" x="0" y="0"></use>
 <use xlink:href="#E1-MJMAINB-70" x="800" y="0"></use>
</g>
</g>
</svg>