<svg xmlns:xlink="http://www.w3.org/1999/xlink" width="37.366ex" height="6.509ex" style="font-size: 15px; vertical-align: -2.671ex;" viewBox="0 -1652.5 16088.1 2802.6" role="img" focusable="false" xmlns="http://www.w3.org/2000/svg">
<defs>
<path stroke-width="1" id="E1-MJMATHI-50" d="M287 628Q287 635 230 637Q206 637 199 638T192 648Q192 649 194 659Q200 679 203 681T397 683Q587 682 600 680Q664 669 707 631T751 530Q751 453 685 389Q616 321 507 303Q500 302 402 301H307L277 182Q247 66 247 59Q247 55 248 54T255 50T272 48T305 46H336Q342 37 342 35Q342 19 335 5Q330 0 319 0Q316 0 282 1T182 2Q120 2 87 2T51 1Q33 1 33 11Q33 13 36 25Q40 41 44 43T67 46Q94 46 127 49Q141 52 146 61Q149 65 218 339T287 628ZM645 554Q645 567 643 575T634 597T609 619T560 635Q553 636 480 637Q463 637 445 637T416 636T404 636Q391 635 386 627Q384 621 367 550T332 412T314 344Q314 342 395 342H407H430Q542 342 590 392Q617 419 631 471T645 554Z"></path>
<path stroke-width="1" id="E1-MJMAIN-28" d="M94 250Q94 319 104 381T127 488T164 576T202 643T244 695T277 729T302 750H315H319Q333 750 333 741Q333 738 316 720T275 667T226 581T184 443T167 250T184 58T225 -81T274 -167T316 -220T333 -241Q333 -250 318 -250H315H302L274 -226Q180 -141 137 -14T94 250Z"></path>
<path stroke-width="1" id="E1-MJMAINB-78" d="M227 0Q212 3 121 3Q40 3 28 0H21V62H117L245 213L109 382H26V444H34Q49 441 143 441Q247 441 265 444H274V382H246L281 339Q315 297 316 297Q320 297 354 341L389 382H352V444H360Q375 441 466 441Q547 441 559 444H566V382H471L355 246L504 63L545 62H586V0H578Q563 3 469 3Q365 3 347 0H338V62H366Q366 63 326 112T285 163L198 63L217 62H235V0H227Z"></path>
<path stroke-width="1" id="E1-MJMAIN-7C" d="M139 -249H137Q125 -249 119 -235V251L120 737Q130 750 139 750Q152 750 159 735V-235Q151 -249 141 -249H139Z"></path>
<path stroke-width="1" id="E1-MJMAINB-7A" d="M48 262Q48 264 54 349T60 436V444H252Q289 444 336 444T394 445Q441 445 450 441T459 418Q459 406 458 404Q456 399 327 229T194 55H237Q260 56 268 56T297 58T325 65T348 77T370 98T384 128T395 170Q400 197 400 216Q400 217 431 217H462V211Q461 208 453 108T444 6V0H245Q46 0 43 2Q32 7 32 28V33Q32 41 40 52T84 112Q129 170 164 217L298 393H256Q189 392 165 380Q124 360 115 303Q110 280 110 256Q110 254 79 254H48V262Z"></path>
<path stroke-width="1" id="E1-MJMAIN-29" d="M60 749L64 750Q69 750 74 750H86L114 726Q208 641 251 514T294 250Q294 182 284 119T261 12T224 -76T186 -143T145 -194T113 -227T90 -246Q87 -249 86 -250H74Q66 -250 63 -250T58 -247T55 -238Q56 -237 66 -225Q221 -64 221 250T66 725Q56 737 55 738Q55 746 60 749Z"></path>
<path stroke-width="1" id="E1-MJMAIN-3D" d="M56 347Q56 360 70 367H707Q722 359 722 347Q722 336 708 328L390 327H72Q56 332 56 347ZM56 153Q56 168 72 173H708Q722 163 722 153Q722 140 707 133H70Q56 140 56 153Z"></path>
<path stroke-width="1" id="E1-MJMAIN-221D" d="M56 124T56 216T107 375T238 442Q260 442 280 438T319 425T352 407T382 385T406 361T427 336T442 315T455 297T462 285L469 297Q555 442 679 442Q687 442 722 437V398H718Q710 400 694 400Q657 400 623 383T567 343T527 294T503 253T495 235Q495 231 520 192T554 143Q625 44 696 44Q717 44 719 46H722V-5Q695 -11 678 -11Q552 -11 457 141Q455 145 454 146L447 134Q362 -11 235 -11Q157 -11 107 56ZM93 213Q93 143 126 87T220 31Q258 31 292 48T349 88T389 137T413 178T421 196Q421 200 396 239T362 288Q322 345 288 366T213 387Q163 387 128 337T93 213Z"></path>
</defs>
<g stroke="currentColor" fill="currentColor" stroke-width="0" transform="matrix(1 0 0 -1 0 0)">
 <use xlink:href="#E1-MJMATHI-50" x="0" y="0"></use>
 <use xlink:href="#E1-MJMAIN-28" x="751" y="0"></use>
 <use xlink:href="#E1-MJMAINB-78" x="1141" y="0"></use>
 <use xlink:href="#E1-MJMAIN-7C" x="1748" y="0"></use>
 <use xlink:href="#E1-MJMAINB-7A" x="2027" y="0"></use>
 <use xlink:href="#E1-MJMAIN-29" x="2538" y="0"></use>
 <use xlink:href="#E1-MJMAIN-3D" x="3205" y="0"></use>
<g transform="translate(3984,0)">
<g transform="translate(397,0)">
<rect stroke="none" width="5186" height="60" x="0" y="220"></rect>
<g transform="translate(60,770)">
 <use xlink:href="#E1-MJMATHI-50" x="0" y="0"></use>
 <use xlink:href="#E1-MJMAIN-28" x="751" y="0"></use>
 <use xlink:href="#E1-MJMAINB-7A" x="1141" y="0"></use>
 <use xlink:href="#E1-MJMAIN-7C" x="1652" y="0"></use>
 <use xlink:href="#E1-MJMAINB-78" x="1931" y="0"></use>
 <use xlink:href="#E1-MJMAIN-29" x="2538" y="0"></use>
 <use xlink:href="#E1-MJMATHI-50" x="2928" y="0"></use>
 <use xlink:href="#E1-MJMAIN-28" x="3679" y="0"></use>
 <use xlink:href="#E1-MJMAINB-78" x="4069" y="0"></use>
 <use xlink:href="#E1-MJMAIN-29" x="4676" y="0"></use>
</g>
<g transform="translate(1572,-771)">
 <use xlink:href="#E1-MJMATHI-50" x="0" y="0"></use>
 <use xlink:href="#E1-MJMAIN-28" x="751" y="0"></use>
 <use xlink:href="#E1-MJMAINB-7A" x="1141" y="0"></use>
 <use xlink:href="#E1-MJMAIN-29" x="1652" y="0"></use>
</g>
</g>
</g>
 <use xlink:href="#E1-MJMAIN-221D" x="9965" y="0"></use>
 <use xlink:href="#E1-MJMATHI-50" x="11022" y="0"></use>
 <use xlink:href="#E1-MJMAIN-28" x="11773" y="0"></use>
 <use xlink:href="#E1-MJMAINB-7A" x="12163" y="0"></use>
 <use xlink:href="#E1-MJMAIN-7C" x="12674" y="0"></use>
 <use xlink:href="#E1-MJMAINB-78" x="12953" y="0"></use>
 <use xlink:href="#E1-MJMAIN-29" x="13560" y="0"></use>
 <use xlink:href="#E1-MJMATHI-50" x="13950" y="0"></use>
 <use xlink:href="#E1-MJMAIN-28" x="14701" y="0"></use>
 <use xlink:href="#E1-MJMAINB-78" x="15091" y="0"></use>
 <use xlink:href="#E1-MJMAIN-29" x="15698" y="0"></use>
</g>
</svg>