<svg xmlns:xlink="http://www.w3.org/1999/xlink" width="28.718ex" height="3.009ex" style="font-size: 15px; vertical-align: -0.838ex;" viewBox="0 -934.9 12364.7 1295.7" role="img" focusable="false" xmlns="http://www.w3.org/2000/svg">
<defs>
<path stroke-width="1" id="E1-MJMAIN-5B" d="M118 -250V750H255V710H158V-210H255V-250H118Z"></path>
<path stroke-width="1" id="E1-MJMATHI-3D5" d="M409 688Q413 694 421 694H429H442Q448 688 448 686Q448 679 418 563Q411 535 404 504T392 458L388 442Q388 441 397 441T429 435T477 418Q521 397 550 357T579 260T548 151T471 65T374 11T279 -10H275L251 -105Q245 -128 238 -160Q230 -192 227 -198T215 -205H209Q189 -205 189 -198Q189 -193 211 -103L234 -11Q234 -10 226 -10Q221 -10 206 -8T161 6T107 36T62 89T43 171Q43 231 76 284T157 370T254 422T342 441Q347 441 348 445L378 567Q409 686 409 688ZM122 150Q122 116 134 91T167 53T203 35T237 27H244L337 404Q333 404 326 403T297 395T255 379T211 350T170 304Q152 276 137 237Q122 191 122 150ZM500 282Q500 320 484 347T444 385T405 400T381 404H378L332 217L284 29Q284 27 285 27Q293 27 317 33T357 47Q400 66 431 100T475 170T494 234T500 282Z"></path>
<path stroke-width="1" id="E1-MJMAIN-31" d="M213 578L200 573Q186 568 160 563T102 556H83V602H102Q149 604 189 617T245 641T273 663Q275 666 285 666Q294 666 302 660V361L303 61Q310 54 315 52T339 48T401 46H427V0H416Q395 3 257 3Q121 3 100 0H88V46H114Q136 46 152 46T177 47T193 50T201 52T207 57T213 61V578Z"></path>
<path stroke-width="1" id="E1-MJMAIN-2C" d="M78 35T78 60T94 103T137 121Q165 121 187 96T210 8Q210 -27 201 -60T180 -117T154 -158T130 -185T117 -194Q113 -194 104 -185T95 -172Q95 -168 106 -156T131 -126T157 -76T173 -3V9L172 8Q170 7 167 6T161 3T152 1T140 0Q113 0 96 17Z"></path>
<path stroke-width="1" id="E1-MJMAIN-32" d="M109 429Q82 429 66 447T50 491Q50 562 103 614T235 666Q326 666 387 610T449 465Q449 422 429 383T381 315T301 241Q265 210 201 149L142 93L218 92Q375 92 385 97Q392 99 409 186V189H449V186Q448 183 436 95T421 3V0H50V19V31Q50 38 56 46T86 81Q115 113 136 137Q145 147 170 174T204 211T233 244T261 278T284 308T305 340T320 369T333 401T340 431T343 464Q343 527 309 573T212 619Q179 619 154 602T119 569T109 550Q109 549 114 549Q132 549 151 535T170 489Q170 464 154 447T109 429Z"></path>
<path stroke-width="1" id="E1-MJMAIN-5D" d="M22 710V750H159V-250H22V-210H119V710H22Z"></path>
<path stroke-width="1" id="E1-MJMAIN-3D" d="M56 347Q56 360 70 367H707Q722 359 722 347Q722 336 708 328L390 327H72Q56 332 56 347ZM56 153Q56 168 72 173H708Q722 163 722 153Q722 140 707 133H70Q56 140 56 153Z"></path>
<path stroke-width="1" id="E1-MJMAIN-28" d="M94 250Q94 319 104 381T127 488T164 576T202 643T244 695T277 729T302 750H315H319Q333 750 333 741Q333 738 316 720T275 667T226 581T184 443T167 250T184 58T225 -81T274 -167T316 -220T333 -241Q333 -250 318 -250H315H302L274 -226Q180 -141 137 -14T94 250Z"></path>
<path stroke-width="1" id="E1-MJMAINB-3A6" d="M609 0Q582 3 415 3T221 0H207V62H342V168L328 169Q193 180 117 241Q64 286 64 343T117 445Q193 506 328 517L342 518V624H207V686H221Q248 683 415 683T609 686H623V624H488V518L502 517Q637 506 713 445Q766 400 766 343T713 241Q637 180 502 169L488 168V62H623V0H609ZM342 219T342 343T340 467Q328 467 304 459Q277 451 261 439T237 409T228 378T226 343Q226 314 229 296T250 259T301 228Q331 219 341 219Q342 219 342 343ZM604 343Q604 365 602 379T591 413T560 446T503 464L489 467Q488 467 488 343T489 219Q499 219 529 228Q554 236 570 248T593 277T602 308T604 343Z"></path>
<path stroke-width="1" id="E1-MJMAINB-31" d="M481 0L294 3Q136 3 109 0H96V62H227V304Q227 546 225 546Q169 529 97 529H80V591H97Q231 591 308 647L319 655H333Q355 655 359 644Q361 640 361 351V62H494V0H481Z"></path>
<path stroke-width="1" id="E1-MJMAINB-32" d="M175 580Q175 578 185 572T205 551T215 510Q215 467 191 449T137 430Q107 430 83 448T58 511Q58 558 91 592T168 640T259 654Q328 654 383 637Q451 610 484 563T517 459Q517 401 482 360T368 262Q340 243 265 184L210 140H274Q416 140 429 145Q439 148 447 186T455 237H517V233Q516 230 501 119Q489 9 486 4V0H57V25Q57 51 58 54Q60 57 109 106T215 214T288 291Q364 377 364 458Q364 515 328 553T231 592Q214 592 201 589T181 584T175 580Z"></path>
<path stroke-width="1" id="E1-MJMAIN-2212" d="M84 237T84 250T98 270H679Q694 262 694 250T679 230H98Q84 237 84 250Z"></path>
<path stroke-width="1" id="E1-MJMAIN-29" d="M60 749L64 750Q69 750 74 750H86L114 726Q208 641 251 514T294 250Q294 182 284 119T261 12T224 -76T186 -143T145 -194T113 -227T90 -246Q87 -249 86 -250H74Q66 -250 63 -250T58 -247T55 -238Q56 -237 66 -225Q221 -64 221 250T66 725Q56 737 55 738Q55 746 60 749Z"></path>
<path stroke-width="1" id="E1-MJMAIN-2228" d="M55 580Q56 587 61 592T75 598Q86 598 96 580L333 48L570 580Q579 596 586 597Q588 598 591 598Q609 598 611 580Q611 574 546 426T415 132T348 -15Q343 -22 333 -22T318 -15Q317 -14 252 131T121 425T55 580Z"></path>
</defs>
<g stroke="currentColor" fill="currentColor" stroke-width="0" transform="matrix(1 0 0 -1 0 0)">
 <use xlink:href="#E1-MJMAIN-5B" x="0" y="0"></use>
<g transform="translate(278,0)">
 <use xlink:href="#E1-MJMATHI-3D5" x="0" y="0"></use>
 <use transform="scale(0.707)" xlink:href="#E1-MJMAIN-31" x="843" y="-213"></use>
</g>
 <use xlink:href="#E1-MJMAIN-2C" x="1328" y="0"></use>
<g transform="translate(1774,0)">
 <use xlink:href="#E1-MJMATHI-3D5" x="0" y="0"></use>
 <use transform="scale(0.707)" xlink:href="#E1-MJMAIN-32" x="843" y="-213"></use>
</g>
 <use xlink:href="#E1-MJMAIN-5D" x="2824" y="0"></use>
 <use xlink:href="#E1-MJMAIN-3D" x="3380" y="0"></use>
 <use xlink:href="#E1-MJMAIN-28" x="4437" y="0"></use>
<g transform="translate(4826,0)">
 <use xlink:href="#E1-MJMAINB-3A6" x="0" y="0"></use>
 <use transform="scale(0.707)" xlink:href="#E1-MJMAINB-31" x="1175" y="-213"></use>
</g>
<g transform="translate(6164,0)">
 <use xlink:href="#E1-MJMAINB-3A6" x="0" y="0"></use>
 <use transform="scale(0.707)" xlink:href="#E1-MJMAINB-32" x="1175" y="-213"></use>
</g>
 <use xlink:href="#E1-MJMAIN-2212" x="7725" y="0"></use>
<g transform="translate(8726,0)">
 <use xlink:href="#E1-MJMAINB-3A6" x="0" y="0"></use>
 <use transform="scale(0.707)" xlink:href="#E1-MJMAINB-32" x="1175" y="-213"></use>
</g>
<g transform="translate(10064,0)">
 <use xlink:href="#E1-MJMAINB-3A6" x="0" y="0"></use>
 <use transform="scale(0.707)" xlink:href="#E1-MJMAINB-31" x="1175" y="-213"></use>
</g>
<g transform="translate(11403,0)">
 <use xlink:href="#E1-MJMAIN-29" x="0" y="0"></use>
 <use transform="scale(0.707)" xlink:href="#E1-MJMAIN-2228" x="550" y="583"></use>
</g>
</g>
</svg>