<svg xmlns:xlink="http://www.w3.org/1999/xlink" width="23.766ex" height="14.509ex" style="font-size: 15px; vertical-align: -6.671ex;" viewBox="0 -3374.7 10232.4 6247" role="img" focusable="false" xmlns="http://www.w3.org/2000/svg">
<defs>
<path stroke-width="1" id="E1-MJMAINB-50" d="M400 0Q376 3 226 3Q75 3 51 0H39V62H147V624H39V686H253Q435 686 470 685T536 678Q585 668 621 648T675 605T705 557T718 514T721 483T718 451T704 409T673 362T616 322T530 293Q500 288 399 287H304V62H412V0H400ZM553 475Q553 554 537 582T459 622Q451 623 373 624H298V343H372Q457 344 480 350Q527 362 540 390T553 475Z"></path>
<path stroke-width="1" id="E1-MJMAIN-32" d="M109 429Q82 429 66 447T50 491Q50 562 103 614T235 666Q326 666 387 610T449 465Q449 422 429 383T381 315T301 241Q265 210 201 149L142 93L218 92Q375 92 385 97Q392 99 409 186V189H449V186Q448 183 436 95T421 3V0H50V19V31Q50 38 56 46T86 81Q115 113 136 137Q145 147 170 174T204 211T233 244T261 278T284 308T305 340T320 369T333 401T340 431T343 464Q343 527 309 573T212 619Q179 619 154 602T119 569T109 550Q109 549 114 549Q132 549 151 535T170 489Q170 464 154 447T109 429Z"></path>
<path stroke-width="1" id="E1-MJMAIN-3D" d="M56 347Q56 360 70 367H707Q722 359 722 347Q722 336 708 328L390 327H72Q56 332 56 347ZM56 153Q56 168 72 173H708Q722 163 722 153Q722 140 707 133H70Q56 140 56 153Z"></path>
<path stroke-width="1" id="E1-MJMAINB-52" d="M394 0Q370 3 222 3Q75 3 51 0H39V62H147V624H39V686H234Q256 686 299 686T362 687Q479 687 554 669T681 593Q716 550 716 497Q716 390 568 338Q569 337 572 336T577 332Q605 317 623 300T650 258T662 218T668 172Q678 98 689 76Q707 40 748 40Q770 40 780 54T795 88T801 111Q805 117 827 117H831Q846 117 852 113T858 92Q857 78 852 63T834 30T797 1T739 -11Q630 -11 580 12T511 87Q506 104 506 168Q506 170 506 178T507 194Q507 289 438 313Q424 318 356 318H298V62H406V0H394ZM366 369Q459 370 490 381Q548 402 548 476V498V517Q548 578 513 600Q479 624 392 624H358H298V369H366Z"></path>
<path stroke-width="1" id="E1-MJMAIN-31" d="M213 578L200 573Q186 568 160 563T102 556H83V602H102Q149 604 189 617T245 641T273 663Q275 666 285 666Q294 666 302 660V361L303 61Q310 54 315 52T339 48T401 46H427V0H416Q395 3 257 3Q121 3 100 0H88V46H114Q136 46 152 46T177 47T193 50T201 52T207 57T213 61V578Z"></path>
<path stroke-width="1" id="E1-MJMAIN-2B" d="M56 237T56 250T70 270H369V420L370 570Q380 583 389 583Q402 583 409 568V270H707Q722 262 722 250T707 230H409V-68Q401 -82 391 -82H389H387Q375 -82 369 -68V230H70Q56 237 56 250Z"></path>
<path stroke-width="1" id="E1-MJMAINB-74" d="M272 49Q320 49 320 136V145V177H382V143Q382 106 380 99Q374 62 349 36T285 -2L272 -5H247Q173 -5 134 27Q109 46 102 74T94 160Q94 171 94 199T95 245V382H21V433H25Q58 433 90 456Q121 479 140 523T162 621V635H224V444H363V382H224V239V207V149Q224 98 228 81T249 55Q261 49 272 49Z"></path>
<path stroke-width="1" id="E1-MJMAIN-22C5" d="M78 250Q78 274 95 292T138 310Q162 310 180 294T199 251Q199 226 182 208T139 190T96 207T78 250Z"></path>
<path stroke-width="1" id="E1-MJMAINB-6E" d="M40 442Q217 450 218 450H224V407L225 365Q233 378 245 391T289 422T362 448Q374 450 398 450Q428 450 448 447T491 434T529 402T551 346Q553 335 554 198V62H623V0H614Q596 3 489 3Q374 3 365 0H356V62H425V194V275Q425 348 416 373T371 399Q326 399 288 370T238 290Q236 281 235 171V62H304V0H295Q277 3 171 3Q64 3 46 0H37V62H106V210V303Q106 353 104 363T91 376Q77 380 50 380H37V442H40Z"></path>
<path stroke-width="1" id="E1-MJMATHI-54" d="M40 437Q21 437 21 445Q21 450 37 501T71 602L88 651Q93 669 101 677H569H659Q691 677 697 676T704 667Q704 661 687 553T668 444Q668 437 649 437Q640 437 637 437T631 442L629 445Q629 451 635 490T641 551Q641 586 628 604T573 629Q568 630 515 631Q469 631 457 630T439 622Q438 621 368 343T298 60Q298 48 386 46Q418 46 427 45T436 36Q436 31 433 22Q429 4 424 1L422 0Q419 0 415 0Q410 0 363 1T228 2Q99 2 64 0H49Q43 6 43 9T45 27Q49 40 55 46H83H94Q174 46 189 55Q190 56 191 56Q196 59 201 76T241 233Q258 301 269 344Q339 619 339 625Q339 630 310 630H279Q212 630 191 624Q146 614 121 583T67 467Q60 445 57 441T43 437H40Z"></path>
<path stroke-width="1" id="E1-MJMATHI-64" d="M366 683Q367 683 438 688T511 694Q523 694 523 686Q523 679 450 384T375 83T374 68Q374 26 402 26Q411 27 422 35Q443 55 463 131Q469 151 473 152Q475 153 483 153H487H491Q506 153 506 145Q506 140 503 129Q490 79 473 48T445 8T417 -8Q409 -10 393 -10Q359 -10 336 5T306 36L300 51Q299 52 296 50Q294 48 292 46Q233 -10 172 -10Q117 -10 75 30T33 157Q33 205 53 255T101 341Q148 398 195 420T280 442Q336 442 364 400Q369 394 369 396Q370 400 396 505T424 616Q424 629 417 632T378 637H357Q351 643 351 645T353 664Q358 683 366 683ZM352 326Q329 405 277 405Q242 405 210 374T160 293Q131 214 119 129Q119 126 119 118T118 106Q118 61 136 44T179 26Q233 26 290 98L298 109L352 326Z"></path>
<path stroke-width="1" id="E1-MJMAIN-28" d="M94 250Q94 319 104 381T127 488T164 576T202 643T244 695T277 729T302 750H315H319Q333 750 333 741Q333 738 316 720T275 667T226 581T184 443T167 250T184 58T225 -81T274 -167T316 -220T333 -241Q333 -250 318 -250H315H302L274 -226Q180 -141 137 -14T94 250Z"></path>
<path stroke-width="1" id="E1-MJMAIN-29" d="M60 749L64 750Q69 750 74 750H86L114 726Q208 641 251 514T294 250Q294 182 284 119T261 12T224 -76T186 -143T145 -194T113 -227T90 -246Q87 -249 86 -250H74Q66 -250 63 -250T58 -247T55 -238Q56 -237 66 -225Q221 -64 221 250T66 725Q56 737 55 738Q55 746 60 749Z"></path>
</defs>
<g stroke="currentColor" fill="currentColor" stroke-width="0" transform="matrix(1 0 0 -1 0 0)">
<g transform="translate(167,0)">
<g transform="translate(-11,0)">
<g transform="translate(0,2494)">
 <use xlink:href="#E1-MJMAINB-50" x="0" y="0"></use>
 <use transform="scale(0.707)" xlink:href="#E1-MJMAIN-32" x="1112" y="-213"></use>
</g>
</g>
<g transform="translate(1229,0)">
<g transform="translate(0,2494)">
 <use xlink:href="#E1-MJMAIN-3D" x="277" y="0"></use>
 <use xlink:href="#E1-MJMAINB-52" x="1334" y="0"></use>
<g transform="translate(2196,0)">
 <use xlink:href="#E1-MJMAINB-50" x="0" y="0"></use>
 <use transform="scale(0.707)" xlink:href="#E1-MJMAIN-31" x="1112" y="-213"></use>
</g>
 <use xlink:href="#E1-MJMAIN-2B" x="3659" y="0"></use>
 <use xlink:href="#E1-MJMAINB-74" x="4659" y="0"></use>
</g>
<g transform="translate(0,475)">
 <use xlink:href="#E1-MJMAIN-3D" x="277" y="0"></use>
 <use xlink:href="#E1-MJMAINB-52" x="1334" y="0"></use>
<g transform="translate(2196,0)">
 <use xlink:href="#E1-MJMAINB-50" x="0" y="0"></use>
 <use transform="scale(0.707)" xlink:href="#E1-MJMAIN-31" x="1112" y="-213"></use>
</g>
 <use xlink:href="#E1-MJMAIN-2B" x="3659" y="0"></use>
 <use xlink:href="#E1-MJMAINB-74" x="4659" y="0"></use>
 <use xlink:href="#E1-MJMAIN-22C5" x="5329" y="0"></use>
<g transform="translate(5608,0)">
<g transform="translate(342,0)">
<rect stroke="none" width="2598" height="60" x="0" y="220"></rect>
<g transform="translate(60,676)">
 <use xlink:href="#E1-MJMAINB-6E" x="0" y="0"></use>
 <use transform="scale(0.707)" xlink:href="#E1-MJMATHI-54" x="904" y="513"></use>
<g transform="translate(1237,0)">
 <use xlink:href="#E1-MJMAINB-50" x="0" y="0"></use>
 <use transform="scale(0.707)" xlink:href="#E1-MJMAIN-31" x="1112" y="-213"></use>
</g>
</g>
 <use xlink:href="#E1-MJMATHI-64" x="1037" y="-715"></use>
</g>
</g>
</g>
<g transform="translate(0,-2069)">
 <use xlink:href="#E1-MJMAIN-3D" x="277" y="0"></use>
 <use xlink:href="#E1-MJMAIN-28" x="1334" y="0"></use>
 <use xlink:href="#E1-MJMAINB-52" x="1723" y="0"></use>
 <use xlink:href="#E1-MJMAIN-2B" x="2808" y="0"></use>
<g transform="translate(3586,0)">
<g transform="translate(342,0)">
<rect stroke="none" width="1805" height="60" x="0" y="220"></rect>
<g transform="translate(60,676)">
 <use xlink:href="#E1-MJMAINB-74" x="0" y="0"></use>
<g transform="translate(447,0)">
 <use xlink:href="#E1-MJMAINB-6E" x="0" y="0"></use>
 <use transform="scale(0.707)" xlink:href="#E1-MJMATHI-54" x="904" y="513"></use>
</g>
</g>
 <use xlink:href="#E1-MJMATHI-64" x="640" y="-715"></use>
</g>
</g>
 <use xlink:href="#E1-MJMAIN-29" x="5854" y="0"></use>
 <use xlink:href="#E1-MJMAIN-22C5" x="6465" y="0"></use>
<g transform="translate(6966,0)">
 <use xlink:href="#E1-MJMAINB-50" x="0" y="0"></use>
 <use transform="scale(0.707)" xlink:href="#E1-MJMAIN-31" x="1112" y="-213"></use>
</g>
</g>
</g>
</g>
</g>
</svg>