<svg xmlns:xlink="http://www.w3.org/1999/xlink" width="20.371ex" height="6.509ex" style="font-size: 15px; vertical-align: -2.505ex;" viewBox="0 -1724.2 8770.7 2802.6" role="img" focusable="false" xmlns="http://www.w3.org/2000/svg">
<defs>
<path stroke-width="1" id="E1-MJMAIN-2202" d="M202 508Q179 508 169 520T158 547Q158 557 164 577T185 624T230 675T301 710L333 715H345Q378 715 384 714Q447 703 489 661T549 568T566 457Q566 362 519 240T402 53Q321 -22 223 -22Q123 -22 73 56Q42 102 42 148V159Q42 276 129 370T322 465Q383 465 414 434T455 367L458 378Q478 461 478 515Q478 603 437 639T344 676Q266 676 223 612Q264 606 264 572Q264 547 246 528T202 508ZM430 306Q430 372 401 400T333 428Q270 428 222 382Q197 354 183 323T150 221Q132 149 132 116Q132 21 232 21Q244 21 250 22Q327 35 374 112Q389 137 409 196T430 306Z"></path>
<path stroke-width="1" id="E1-MJMAIN-28" d="M94 250Q94 319 104 381T127 488T164 576T202 643T244 695T277 729T302 750H315H319Q333 750 333 741Q333 738 316 720T275 667T226 581T184 443T167 250T184 58T225 -81T274 -167T316 -220T333 -241Q333 -250 318 -250H315H302L274 -226Q180 -141 137 -14T94 250Z"></path>
<path stroke-width="1" id="E1-MJMAINB-50" d="M400 0Q376 3 226 3Q75 3 51 0H39V62H147V624H39V686H253Q435 686 470 685T536 678Q585 668 621 648T675 605T705 557T718 514T721 483T718 451T704 409T673 362T616 322T530 293Q500 288 399 287H304V62H412V0H400ZM553 475Q553 554 537 582T459 622Q451 623 373 624H298V343H372Q457 344 480 350Q527 362 540 390T553 475Z"></path>
<path stroke-width="1" id="E1-MJMAIN-2032" d="M79 43Q73 43 52 49T30 61Q30 68 85 293T146 528Q161 560 198 560Q218 560 240 545T262 501Q262 496 260 486Q259 479 173 263T84 45T79 43Z"></path>
<path stroke-width="1" id="E1-MJMAIN-29" d="M60 749L64 750Q69 750 74 750H86L114 726Q208 641 251 514T294 250Q294 182 284 119T261 12T224 -76T186 -143T145 -194T113 -227T90 -246Q87 -249 86 -250H74Q66 -250 63 -250T58 -247T55 -238Q56 -237 66 -225Q221 -64 221 250T66 725Q56 737 55 738Q55 746 60 749Z"></path>
<path stroke-width="1" id="E1-MJMATHI-3B4" d="M195 609Q195 656 227 686T302 717Q319 716 351 709T407 697T433 690Q451 682 451 662Q451 644 438 628T403 612Q382 612 348 641T288 671T249 657T235 628Q235 584 334 463Q401 379 401 292Q401 169 340 80T205 -10H198Q127 -10 83 36T36 153Q36 286 151 382Q191 413 252 434Q252 435 245 449T230 481T214 521T201 566T195 609ZM112 130Q112 83 136 55T204 27Q233 27 256 51T291 111T309 178T316 232Q316 267 309 298T295 344T269 400L259 396Q215 381 183 342T137 256T118 179T112 130Z"></path>
<path stroke-width="1" id="E1-MJMATHI-3BE" d="M268 632Q268 704 296 704Q314 704 314 687Q314 682 311 664T308 635T309 620V616H315Q342 619 360 619Q443 619 443 586Q439 548 358 546H344Q326 546 317 549T290 566Q257 550 226 505T195 405Q195 381 201 364T211 342T218 337Q266 347 298 347Q375 347 375 314Q374 297 359 288T327 277T280 275Q234 275 208 283L195 286Q149 260 119 214T88 130Q88 116 90 108Q101 79 129 63T229 20Q238 17 243 15Q337 -21 354 -33Q383 -53 383 -94Q383 -137 351 -171T273 -205Q240 -205 202 -190T158 -167Q156 -163 156 -159Q156 -151 161 -146T176 -140Q182 -140 189 -143Q232 -168 274 -168Q286 -168 292 -165Q313 -151 313 -129Q313 -112 301 -104T232 -75Q214 -68 204 -64Q198 -62 171 -52T136 -38T107 -24T78 -8T56 12T36 37T26 66T21 103Q21 149 55 206T145 301L154 307L148 313Q141 319 136 323T124 338T111 358T103 382T99 413Q99 471 143 524T259 602L271 607Q268 618 268 632Z"></path>
<path stroke-width="1" id="E1-MJMAIN-3D" d="M56 347Q56 360 70 367H707Q722 359 722 347Q722 336 708 328L390 327H72Q56 332 56 347ZM56 153Q56 168 72 173H708Q722 163 722 153Q722 140 707 133H70Q56 140 56 153Z"></path>
<path stroke-width="1" id="E1-MJMAIN-5B" d="M118 -250V750H255V710H158V-210H255V-250H118Z"></path>
<path stroke-width="1" id="E1-MJMAINB-49" d="M397 0Q370 3 218 3Q65 3 38 0H25V62H139V624H25V686H38Q65 683 218 683Q370 683 397 686H410V624H296V62H410V0H397Z"></path>
<path stroke-width="1" id="E1-MJMAIN-2212" d="M84 237T84 250T98 270H679Q694 262 694 250T679 230H98Q84 237 84 250Z"></path>
<path stroke-width="1" id="E1-MJMAIN-2227" d="M318 591Q325 598 333 598Q344 598 348 591Q349 590 414 445T545 151T611 -4Q609 -22 591 -22Q588 -22 586 -21T581 -20T577 -17T575 -13T572 -9T570 -4L333 528L96 -4Q87 -20 80 -21Q78 -22 75 -22Q57 -22 55 -4Q55 2 120 150T251 444T318 591Z"></path>
<path stroke-width="1" id="E1-MJMAIN-5D" d="M22 710V750H159V-250H22V-210H119V710H22Z"></path>
</defs>
<g stroke="currentColor" fill="currentColor" stroke-width="0" transform="matrix(1 0 0 -1 0 0)">
<g transform="translate(120,0)">
<rect stroke="none" width="2547" height="60" x="0" y="220"></rect>
<g transform="translate(60,770)">
 <use xlink:href="#E1-MJMAIN-2202" x="0" y="0"></use>
 <use xlink:href="#E1-MJMAIN-28" x="567" y="0"></use>
<g transform="translate(957,0)">
 <use xlink:href="#E1-MJMAINB-50" x="0" y="0"></use>
 <use transform="scale(0.707)" xlink:href="#E1-MJMAIN-2032" x="1112" y="585"></use>
</g>
 <use xlink:href="#E1-MJMAIN-29" x="2038" y="0"></use>
</g>
<g transform="translate(542,-738)">
 <use xlink:href="#E1-MJMAIN-2202" x="0" y="0"></use>
 <use xlink:href="#E1-MJMATHI-3B4" x="567" y="0"></use>
 <use xlink:href="#E1-MJMATHI-3BE" x="1019" y="0"></use>
</g>
</g>
 <use xlink:href="#E1-MJMAIN-3D" x="3065" y="0"></use>
<g transform="translate(4121,0)">
 <use xlink:href="#E1-MJMAIN-5B"></use>
<g transform="translate(445,0)">
 <use xlink:href="#E1-MJMAINB-49" x="-11" y="-69"></use>
<g transform="translate(1426,0)">
<g transform="translate(0,-69)">
 <use xlink:href="#E1-MJMAIN-2212" x="0" y="0"></use>
<g transform="translate(778,0)">
 <use xlink:href="#E1-MJMAINB-50" x="0" y="0"></use>
<g transform="translate(786,413)">
 <use transform="scale(0.707)" xlink:href="#E1-MJMAIN-2032" x="0" y="0"></use>
 <use transform="scale(0.707)" xlink:href="#E1-MJMAIN-2227" x="275" y="0"></use>
</g>
</g>
</g>
</g>
</g>
 <use xlink:href="#E1-MJMAIN-5D" x="4370" y="0"></use>
</g>
</g>
</svg>