<svg xmlns:xlink="http://www.w3.org/1999/xlink" width="9.767ex" height="5.676ex" style="font-size: 15px; vertical-align: -2.005ex;" viewBox="0 -1580.7 4205.4 2443.8" role="img" focusable="false" xmlns="http://www.w3.org/2000/svg">
<defs>
<path stroke-width="1" id="E1-MJMAIN-2202" d="M202 508Q179 508 169 520T158 547Q158 557 164 577T185 624T230 675T301 710L333 715H345Q378 715 384 714Q447 703 489 661T549 568T566 457Q566 362 519 240T402 53Q321 -22 223 -22Q123 -22 73 56Q42 102 42 148V159Q42 276 129 370T322 465Q383 465 414 434T455 367L458 378Q478 461 478 515Q478 603 437 639T344 676Q266 676 223 612Q264 606 264 572Q264 547 246 528T202 508ZM430 306Q430 372 401 400T333 428Q270 428 222 382Q197 354 183 323T150 221Q132 149 132 116Q132 21 232 21Q244 21 250 22Q327 35 374 112Q389 137 409 196T430 306Z"></path>
<path stroke-width="1" id="E1-MJMAINB-50" d="M400 0Q376 3 226 3Q75 3 51 0H39V62H147V624H39V686H253Q435 686 470 685T536 678Q585 668 621 648T675 605T705 557T718 514T721 483T718 451T704 409T673 362T616 322T530 293Q500 288 399 287H304V62H412V0H400ZM553 475Q553 554 537 582T459 622Q451 623 373 624H298V343H372Q457 344 480 350Q527 362 540 390T553 475Z"></path>
<path stroke-width="1" id="E1-MJMAIN-2032" d="M79 43Q73 43 52 49T30 61Q30 68 85 293T146 528Q161 560 198 560Q218 560 240 545T262 501Q262 496 260 486Q259 479 173 263T84 45T79 43Z"></path>
<path stroke-width="1" id="E1-MJMAIN-3D" d="M56 347Q56 360 70 367H707Q722 359 722 347Q722 336 708 328L390 327H72Q56 332 56 347ZM56 153Q56 168 72 173H708Q722 163 722 153Q722 140 707 133H70Q56 140 56 153Z"></path>
<path stroke-width="1" id="E1-MJMAINB-52" d="M394 0Q370 3 222 3Q75 3 51 0H39V62H147V624H39V686H234Q256 686 299 686T362 687Q479 687 554 669T681 593Q716 550 716 497Q716 390 568 338Q569 337 572 336T577 332Q605 317 623 300T650 258T662 218T668 172Q678 98 689 76Q707 40 748 40Q770 40 780 54T795 88T801 111Q805 117 827 117H831Q846 117 852 113T858 92Q857 78 852 63T834 30T797 1T739 -11Q630 -11 580 12T511 87Q506 104 506 168Q506 170 506 178T507 194Q507 289 438 313Q424 318 356 318H298V62H406V0H394ZM366 369Q459 370 490 381Q548 402 548 476V498V517Q548 578 513 600Q479 624 392 624H358H298V369H366Z"></path>
</defs>
<g stroke="currentColor" fill="currentColor" stroke-width="0" transform="matrix(1 0 0 -1 0 0)">
<g transform="translate(120,0)">
<rect stroke="none" width="1768" height="60" x="0" y="220"></rect>
<g transform="translate(60,676)">
 <use xlink:href="#E1-MJMAIN-2202" x="0" y="0"></use>
<g transform="translate(567,0)">
 <use xlink:href="#E1-MJMAINB-50" x="0" y="0"></use>
 <use transform="scale(0.707)" xlink:href="#E1-MJMAIN-2032" x="1112" y="585"></use>
</g>
</g>
<g transform="translate(207,-736)">
 <use xlink:href="#E1-MJMAIN-2202" x="0" y="0"></use>
 <use xlink:href="#E1-MJMAINB-50" x="567" y="0"></use>
</g>
</g>
 <use xlink:href="#E1-MJMAIN-3D" x="2286" y="0"></use>
 <use xlink:href="#E1-MJMAINB-52" x="3342" y="0"></use>
</g>
</svg>