<svg xmlns:xlink="http://www.w3.org/1999/xlink" width="44.469ex" height="9.509ex" style="font-size: 15px; vertical-align: -3.939ex; margin-bottom: -0.232ex;" viewBox="0 -2298.3 19146.3 4094.3" role="img" focusable="false" xmlns="http://www.w3.org/2000/svg">
<defs>
<path stroke-width="1" id="E1-MJMAINB-74" d="M272 49Q320 49 320 136V145V177H382V143Q382 106 380 99Q374 62 349 36T285 -2L272 -5H247Q173 -5 134 27Q109 46 102 74T94 160Q94 171 94 199T95 245V382H21V433H25Q58 433 90 456Q121 479 140 523T162 621V635H224V444H363V382H224V239V207V149Q224 98 228 81T249 55Q261 49 272 49Z"></path>
<path stroke-width="1" id="E1-MJMAIN-2227" d="M318 591Q325 598 333 598Q344 598 348 591Q349 590 414 445T545 151T611 -4Q609 -22 591 -22Q588 -22 586 -21T581 -20T577 -17T575 -13T572 -9T570 -4L333 528L96 -4Q87 -20 80 -21Q78 -22 75 -22Q57 -22 55 -4Q55 2 120 150T251 444T318 591Z"></path>
<path stroke-width="1" id="E1-MJMAIN-31" d="M213 578L200 573Q186 568 160 563T102 556H83V602H102Q149 604 189 617T245 641T273 663Q275 666 285 666Q294 666 302 660V361L303 61Q310 54 315 52T339 48T401 46H427V0H416Q395 3 257 3Q121 3 100 0H88V46H114Q136 46 152 46T177 47T193 50T201 52T207 57T213 61V578Z"></path>
<path stroke-width="1" id="E1-MJMAIN-3D" d="M56 347Q56 360 70 367H707Q722 359 722 347Q722 336 708 328L390 327H72Q56 332 56 347ZM56 153Q56 168 72 173H708Q722 163 722 153Q722 140 707 133H70Q56 140 56 153Z"></path>
<path stroke-width="1" id="E1-MJMAINB-55" d="M570 686Q588 683 703 683T836 686H845V624H737V420Q737 390 737 345T738 284Q738 205 729 164T689 83Q614 -11 465 -11Q321 -11 240 51T148 207Q147 214 147 421V624H39V686H51Q75 683 226 683Q376 683 400 686H412V624H304V405V370V268Q304 181 311 146T346 87Q387 52 466 52Q642 52 667 195Q668 204 669 415V624H561V686H570Z"></path>
<path stroke-width="1" id="E1-MJMAINB-52" d="M394 0Q370 3 222 3Q75 3 51 0H39V62H147V624H39V686H234Q256 686 299 686T362 687Q479 687 554 669T681 593Q716 550 716 497Q716 390 568 338Q569 337 572 336T577 332Q605 317 623 300T650 258T662 218T668 172Q678 98 689 76Q707 40 748 40Q770 40 780 54T795 88T801 111Q805 117 827 117H831Q846 117 852 113T858 92Q857 78 852 63T834 30T797 1T739 -11Q630 -11 580 12T511 87Q506 104 506 168Q506 170 506 178T507 194Q507 289 438 313Q424 318 356 318H298V62H406V0H394ZM366 369Q459 370 490 381Q548 402 548 476V498V517Q548 578 513 600Q479 624 392 624H358H298V369H366Z"></path>
<path stroke-width="1" id="E1-MJMATHI-7A" d="M347 338Q337 338 294 349T231 360Q211 360 197 356T174 346T162 335T155 324L153 320Q150 317 138 317Q117 317 117 325Q117 330 120 339Q133 378 163 406T229 440Q241 442 246 442Q271 442 291 425T329 392T367 375Q389 375 411 408T434 441Q435 442 449 442H462Q468 436 468 434Q468 430 463 420T449 399T432 377T418 358L411 349Q368 298 275 214T160 106L148 94L163 93Q185 93 227 82T290 71Q328 71 360 90T402 140Q406 149 409 151T424 153Q443 153 443 143Q443 138 442 134Q425 72 376 31T278 -11Q252 -11 232 6T193 40T155 57Q111 57 76 -3Q70 -11 59 -11H54H41Q35 -5 35 -2Q35 13 93 84Q132 129 225 214T340 322Q352 338 347 338Z"></path>
<path stroke-width="1" id="E1-MJMAIN-28" d="M94 250Q94 319 104 381T127 488T164 576T202 643T244 695T277 729T302 750H315H319Q333 750 333 741Q333 738 316 720T275 667T226 581T184 443T167 250T184 58T225 -81T274 -167T316 -220T333 -241Q333 -250 318 -250H315H302L274 -226Q180 -141 137 -14T94 250Z"></path>
<path stroke-width="1" id="E1-MJMATHI-3C0" d="M132 -11Q98 -11 98 22V33L111 61Q186 219 220 334L228 358H196Q158 358 142 355T103 336Q92 329 81 318T62 297T53 285Q51 284 38 284Q19 284 19 294Q19 300 38 329T93 391T164 429Q171 431 389 431Q549 431 553 430Q573 423 573 402Q573 371 541 360Q535 358 472 358H408L405 341Q393 269 393 222Q393 170 402 129T421 65T431 37Q431 20 417 5T381 -10Q370 -10 363 -7T347 17T331 77Q330 86 330 121Q330 170 339 226T357 318T367 358H269L268 354Q268 351 249 275T206 114T175 17Q164 -11 132 -11Z"></path>
<path stroke-width="1" id="E1-MJMAIN-32" d="M109 429Q82 429 66 447T50 491Q50 562 103 614T235 666Q326 666 387 610T449 465Q449 422 429 383T381 315T301 241Q265 210 201 149L142 93L218 92Q375 92 385 97Q392 99 409 186V189H449V186Q448 183 436 95T421 3V0H50V19V31Q50 38 56 46T86 81Q115 113 136 137Q145 147 170 174T204 211T233 244T261 278T284 308T305 340T320 369T333 401T340 431T343 464Q343 527 309 573T212 619Q179 619 154 602T119 569T109 550Q109 549 114 549Q132 549 151 535T170 489Q170 464 154 447T109 429Z"></path>
<path stroke-width="1" id="E1-MJMAIN-29" d="M60 749L64 750Q69 750 74 750H86L114 726Q208 641 251 514T294 250Q294 182 284 119T261 12T224 -76T186 -143T145 -194T113 -227T90 -246Q87 -249 86 -250H74Q66 -250 63 -250T58 -247T55 -238Q56 -237 66 -225Q221 -64 221 250T66 725Q56 737 55 738Q55 746 60 749Z"></path>
<path stroke-width="1" id="E1-MJMAINB-3A3" d="M766 271Q764 266 750 137T735 4V0H407Q74 0 71 4L70 5Q64 9 64 18Q64 24 82 41T213 158L359 288Q360 288 320 336T214 460Q67 633 66 635Q64 638 64 655Q64 679 75 684Q78 686 407 686H735V682Q738 676 751 558T766 434V430H735Q704 430 704 431Q704 434 703 444T696 477T681 520T654 563T613 598Q578 615 527 619T371 624H281L396 489Q506 358 513 351Q517 342 512 334Q503 325 371 208Q338 179 303 147T249 99L231 83L243 81Q258 81 364 81Q382 81 418 81T470 82T513 83T554 88T587 96T619 109T645 129Q689 173 702 260L704 274Q704 275 735 275H766V271Z"></path>
<path stroke-width="1" id="E1-MJMATHI-54" d="M40 437Q21 437 21 445Q21 450 37 501T71 602L88 651Q93 669 101 677H569H659Q691 677 697 676T704 667Q704 661 687 553T668 444Q668 437 649 437Q640 437 637 437T631 442L629 445Q629 451 635 490T641 551Q641 586 628 604T573 629Q568 630 515 631Q469 631 457 630T439 622Q438 621 368 343T298 60Q298 48 386 46Q418 46 427 45T436 36Q436 31 433 22Q429 4 424 1L422 0Q419 0 415 0Q410 0 363 1T228 2Q99 2 64 0H49Q43 6 43 9T45 27Q49 40 55 46H83H94Q174 46 189 55Q190 56 191 56Q196 59 201 76T241 233Q258 301 269 344Q339 619 339 625Q339 630 310 630H279Q212 630 191 624Q146 614 121 583T67 467Q60 445 57 441T43 437H40Z"></path>
<path stroke-width="1" id="E1-MJMAIN-2C" d="M78 35T78 60T94 103T137 121Q165 121 187 96T210 8Q210 -27 201 -60T180 -117T154 -158T130 -185T117 -194Q113 -194 104 -185T95 -172Q95 -168 106 -156T131 -126T157 -76T173 -3V9L172 8Q170 7 167 6T161 3T152 1T140 0Q113 0 96 17Z"></path>
<path stroke-width="1" id="E1-MJMAINB-56" d="M592 686H604Q615 685 631 685T666 684T700 684T724 683Q829 683 835 686H843V624H744L611 315Q584 254 546 165Q492 40 482 19T461 -6L460 -7H409Q398 -4 391 9Q385 20 257 315L124 624H25V686H36Q57 683 190 683Q340 683 364 686H377V624H289L384 403L480 185L492 212Q504 240 529 298T575 405L670 624H582V686H592Z"></path>
<path stroke-width="1" id="E1-MJMAIN-2212" d="M84 237T84 250T98 270H679Q694 262 694 250T679 230H98Q84 237 84 250Z"></path>
</defs>
<g stroke="currentColor" fill="currentColor" stroke-width="0" transform="matrix(1 0 0 -1 0 0)">
<g transform="translate(167,0)">
<g transform="translate(-11,0)">
<g transform="translate(778,1087)">
 <use xlink:href="#E1-MJMAINB-74" x="0" y="0"></use>
 <use transform="scale(0.707)" xlink:href="#E1-MJMAIN-2227" x="632" y="513"></use>
 <use transform="scale(0.707)" xlink:href="#E1-MJMAIN-31" x="632" y="-432"></use>
 <use xlink:href="#E1-MJMAIN-3D" x="1297" y="0"></use>
 <use xlink:href="#E1-MJMAINB-55" x="2353" y="0"></use>
<g transform="translate(3239,0)">
 <use xlink:href="#E1-MJMAINB-52" x="0" y="0"></use>
 <use transform="scale(0.707)" xlink:href="#E1-MJMATHI-7A" x="1219" y="-213"></use>
</g>
 <use xlink:href="#E1-MJMAIN-28" x="4532" y="0"></use>
<g transform="translate(4922,0)">
<g transform="translate(120,0)">
<rect stroke="none" width="693" height="60" x="0" y="220"></rect>
 <use xlink:href="#E1-MJMATHI-3C0" x="60" y="676"></use>
 <use xlink:href="#E1-MJMAIN-32" x="96" y="-687"></use>
</g>
</g>
 <use xlink:href="#E1-MJMAIN-29" x="5855" y="0"></use>
 <use xlink:href="#E1-MJMAINB-3A3" x="6245" y="0"></use>
<g transform="translate(7076,0)">
 <use xlink:href="#E1-MJMAINB-55" x="0" y="0"></use>
 <use transform="scale(0.707)" xlink:href="#E1-MJMATHI-54" x="1252" y="585"></use>
</g>
 <use xlink:href="#E1-MJMAIN-2C" x="8560" y="0"></use>
</g>
<g transform="translate(0,-1009)">
 <use xlink:href="#E1-MJMAINB-74" x="0" y="0"></use>
 <use transform="scale(0.707)" xlink:href="#E1-MJMAIN-2227" x="632" y="513"></use>
 <use transform="scale(0.707)" xlink:href="#E1-MJMAIN-32" x="632" y="-432"></use>
 <use xlink:href="#E1-MJMAIN-3D" x="1297" y="0"></use>
 <use xlink:href="#E1-MJMAINB-55" x="2353" y="0"></use>
<g transform="translate(3239,0)">
 <use xlink:href="#E1-MJMAINB-52" x="0" y="0"></use>
 <use transform="scale(0.707)" xlink:href="#E1-MJMATHI-7A" x="1219" y="-213"></use>
</g>
 <use xlink:href="#E1-MJMAIN-28" x="4532" y="0"></use>
 <use xlink:href="#E1-MJMAIN-2212" x="4922" y="0"></use>
<g transform="translate(5700,0)">
<g transform="translate(120,0)">
<rect stroke="none" width="693" height="60" x="0" y="220"></rect>
 <use xlink:href="#E1-MJMATHI-3C0" x="60" y="676"></use>
 <use xlink:href="#E1-MJMAIN-32" x="96" y="-687"></use>
</g>
</g>
 <use xlink:href="#E1-MJMAIN-29" x="6634" y="0"></use>
 <use xlink:href="#E1-MJMAINB-3A3" x="7023" y="0"></use>
<g transform="translate(7855,0)">
 <use xlink:href="#E1-MJMAINB-55" x="0" y="0"></use>
 <use transform="scale(0.707)" xlink:href="#E1-MJMATHI-54" x="1252" y="585"></use>
</g>
 <use xlink:href="#E1-MJMAIN-2C" x="9338" y="0"></use>
</g>
</g>
<g transform="translate(9607,0)">
<g transform="translate(0,1087)">
<g transform="translate(250,0)">
 <use xlink:href="#E1-MJMAINB-52" x="0" y="0"></use>
 <use transform="scale(0.707)" xlink:href="#E1-MJMAIN-31" x="1219" y="-213"></use>
</g>
 <use xlink:href="#E1-MJMAIN-3D" x="1844" y="0"></use>
 <use xlink:href="#E1-MJMAINB-55" x="2900" y="0"></use>
<g transform="translate(3785,0)">
 <use xlink:href="#E1-MJMAINB-52" x="0" y="0"></use>
 <use transform="scale(0.707)" xlink:href="#E1-MJMATHI-54" x="1219" y="586"></use>
 <use transform="scale(0.707)" xlink:href="#E1-MJMATHI-7A" x="1219" y="-350"></use>
</g>
 <use xlink:href="#E1-MJMAIN-28" x="5246" y="0"></use>
<g transform="translate(5636,0)">
<g transform="translate(120,0)">
<rect stroke="none" width="693" height="60" x="0" y="220"></rect>
 <use xlink:href="#E1-MJMATHI-3C0" x="60" y="676"></use>
 <use xlink:href="#E1-MJMAIN-32" x="96" y="-687"></use>
</g>
</g>
 <use xlink:href="#E1-MJMAIN-29" x="6569" y="0"></use>
<g transform="translate(6959,0)">
 <use xlink:href="#E1-MJMAINB-56" x="0" y="0"></use>
 <use transform="scale(0.707)" xlink:href="#E1-MJMATHI-54" x="1229" y="585"></use>
</g>
</g>
<g transform="translate(0,-1009)">
<g transform="translate(250,0)">
 <use xlink:href="#E1-MJMAINB-52" x="0" y="0"></use>
 <use transform="scale(0.707)" xlink:href="#E1-MJMAIN-32" x="1219" y="-213"></use>
</g>
 <use xlink:href="#E1-MJMAIN-3D" x="1844" y="0"></use>
 <use xlink:href="#E1-MJMAINB-55" x="2900" y="0"></use>
<g transform="translate(3785,0)">
 <use xlink:href="#E1-MJMAINB-52" x="0" y="0"></use>
 <use transform="scale(0.707)" xlink:href="#E1-MJMATHI-54" x="1219" y="586"></use>
 <use transform="scale(0.707)" xlink:href="#E1-MJMATHI-7A" x="1219" y="-350"></use>
</g>
 <use xlink:href="#E1-MJMAIN-28" x="5246" y="0"></use>
 <use xlink:href="#E1-MJMAIN-2212" x="5636" y="0"></use>
<g transform="translate(6414,0)">
<g transform="translate(120,0)">
<rect stroke="none" width="693" height="60" x="0" y="220"></rect>
 <use xlink:href="#E1-MJMATHI-3C0" x="60" y="676"></use>
 <use xlink:href="#E1-MJMAIN-32" x="96" y="-687"></use>
</g>
</g>
 <use xlink:href="#E1-MJMAIN-29" x="7348" y="0"></use>
<g transform="translate(7737,0)">
 <use xlink:href="#E1-MJMAINB-56" x="0" y="0"></use>
 <use transform="scale(0.707)" xlink:href="#E1-MJMATHI-54" x="1229" y="585"></use>
</g>
</g>
</g>
</g>
</g>
</svg>