<svg xmlns:xlink="http://www.w3.org/1999/xlink" width="21.969ex" height="11.176ex" style="font-size: 15px; vertical-align: -5.005ex;" viewBox="0 -2657.1 9459 4811.9" role="img" focusable="false" xmlns="http://www.w3.org/2000/svg">
<defs>
<path stroke-width="1" id="E1-MJMAIN-7B" d="M434 -231Q434 -244 428 -250H410Q281 -250 230 -184Q225 -177 222 -172T217 -161T213 -148T211 -133T210 -111T209 -84T209 -47T209 0Q209 21 209 53Q208 142 204 153Q203 154 203 155Q189 191 153 211T82 231Q71 231 68 234T65 250T68 266T82 269Q116 269 152 289T203 345Q208 356 208 377T209 529V579Q209 634 215 656T244 698Q270 724 324 740Q361 748 377 749Q379 749 390 749T408 750H428Q434 744 434 732Q434 719 431 716Q429 713 415 713Q362 710 332 689T296 647Q291 634 291 499V417Q291 370 288 353T271 314Q240 271 184 255L170 250L184 245Q202 239 220 230T262 196T290 137Q291 131 291 1Q291 -134 296 -147Q306 -174 339 -192T415 -213Q429 -213 431 -216Q434 -219 434 -231Z"></path>
<path stroke-width="1" id="E1-MJMATHI-69" d="M184 600Q184 624 203 642T247 661Q265 661 277 649T290 619Q290 596 270 577T226 557Q211 557 198 567T184 600ZM21 287Q21 295 30 318T54 369T98 420T158 442Q197 442 223 419T250 357Q250 340 236 301T196 196T154 83Q149 61 149 51Q149 26 166 26Q175 26 185 29T208 43T235 78T260 137Q263 149 265 151T282 153Q302 153 302 143Q302 135 293 112T268 61T223 11T161 -11Q129 -11 102 10T74 74Q74 91 79 106T122 220Q160 321 166 341T173 380Q173 404 156 404H154Q124 404 99 371T61 287Q60 286 59 284T58 281T56 279T53 278T49 278T41 278H27Q21 284 21 287Z"></path>
<path stroke-width="1" id="E1-MJMAIN-32" d="M109 429Q82 429 66 447T50 491Q50 562 103 614T235 666Q326 666 387 610T449 465Q449 422 429 383T381 315T301 241Q265 210 201 149L142 93L218 92Q375 92 385 97Q392 99 409 186V189H449V186Q448 183 436 95T421 3V0H50V19V31Q50 38 56 46T86 81Q115 113 136 137Q145 147 170 174T204 211T233 244T261 278T284 308T305 340T320 369T333 401T340 431T343 464Q343 527 309 573T212 619Q179 619 154 602T119 569T109 550Q109 549 114 549Q132 549 151 535T170 489Q170 464 154 447T109 429Z"></path>
<path stroke-width="1" id="E1-MJMAIN-3D" d="M56 347Q56 360 70 367H707Q722 359 722 347Q722 336 708 328L390 327H72Q56 332 56 347ZM56 153Q56 168 72 173H708Q722 163 722 153Q722 140 707 133H70Q56 140 56 153Z"></path>
<path stroke-width="1" id="E1-MJMATHI-6A" d="M297 596Q297 627 318 644T361 661Q378 661 389 651T403 623Q403 595 384 576T340 557Q322 557 310 567T297 596ZM288 376Q288 405 262 405Q240 405 220 393T185 362T161 325T144 293L137 279Q135 278 121 278H107Q101 284 101 286T105 299Q126 348 164 391T252 441Q253 441 260 441T272 442Q296 441 316 432Q341 418 354 401T367 348V332L318 133Q267 -67 264 -75Q246 -125 194 -164T75 -204Q25 -204 7 -183T-12 -137Q-12 -110 7 -91T53 -71Q70 -71 82 -81T95 -112Q95 -148 63 -167Q69 -168 77 -168Q111 -168 139 -140T182 -74L193 -32Q204 11 219 72T251 197T278 308T289 365Q289 372 288 376Z"></path>
<path stroke-width="1" id="E1-MJMATHI-6B" d="M121 647Q121 657 125 670T137 683Q138 683 209 688T282 694Q294 694 294 686Q294 679 244 477Q194 279 194 272Q213 282 223 291Q247 309 292 354T362 415Q402 442 438 442Q468 442 485 423T503 369Q503 344 496 327T477 302T456 291T438 288Q418 288 406 299T394 328Q394 353 410 369T442 390L458 393Q446 405 434 405H430Q398 402 367 380T294 316T228 255Q230 254 243 252T267 246T293 238T320 224T342 206T359 180T365 147Q365 130 360 106T354 66Q354 26 381 26Q429 26 459 145Q461 153 479 153H483Q499 153 499 144Q499 139 496 130Q455 -11 378 -11Q333 -11 305 15T277 90Q277 108 280 121T283 145Q283 167 269 183T234 206T200 217T182 220H180Q168 178 159 139T145 81T136 44T129 20T122 7T111 -2Q98 -11 83 -11Q66 -11 57 -1T48 16Q48 26 85 176T158 471L195 616Q196 629 188 632T149 637H144Q134 637 131 637T124 640T121 647Z"></path>
<path stroke-width="1" id="E1-MJMAIN-2212" d="M84 237T84 250T98 270H679Q694 262 694 250T679 230H98Q84 237 84 250Z"></path>
<path stroke-width="1" id="E1-MJMAIN-31" d="M213 578L200 573Q186 568 160 563T102 556H83V602H102Q149 604 189 617T245 641T273 663Q275 666 285 666Q294 666 302 660V361L303 61Q310 54 315 52T339 48T401 46H427V0H416Q395 3 257 3Q121 3 100 0H88V46H114Q136 46 152 46T177 47T193 50T201 52T207 57T213 61V578Z"></path>
<path stroke-width="1" id="E1-MJMAIN-2C" d="M78 35T78 60T94 103T137 121Q165 121 187 96T210 8Q210 -27 201 -60T180 -117T154 -158T130 -185T117 -194Q113 -194 104 -185T95 -172Q95 -168 106 -156T131 -126T157 -76T173 -3V9L172 8Q170 7 167 6T161 3T152 1T140 0Q113 0 96 17Z"></path>
<path stroke-width="1" id="E1-MJSZ4-23A7" d="M712 899L718 893V876V865Q718 854 704 846Q627 793 577 710T510 525Q510 524 509 521Q505 493 504 349Q504 345 504 334Q504 277 504 240Q504 -2 503 -4Q502 -8 494 -9T444 -10Q392 -10 390 -9Q387 -8 386 -5Q384 5 384 230Q384 262 384 312T383 382Q383 481 392 535T434 656Q510 806 664 892L677 899H712Z"></path>
<path stroke-width="1" id="E1-MJSZ4-23A9" d="M718 -893L712 -899H677L666 -893Q542 -825 468 -714T385 -476Q384 -466 384 -282Q384 3 385 5L389 9Q392 10 444 10Q486 10 494 9T503 4Q504 2 504 -239V-310V-366Q504 -470 508 -513T530 -609Q546 -657 569 -698T617 -767T661 -812T699 -843T717 -856T718 -876V-893Z"></path>
<path stroke-width="1" id="E1-MJSZ4-23A8" d="M389 1159Q391 1160 455 1160Q496 1160 498 1159Q501 1158 502 1155Q504 1145 504 924Q504 691 503 682Q494 549 425 439T243 259L229 250L243 241Q349 175 421 66T503 -182Q504 -191 504 -424Q504 -600 504 -629T499 -659H498Q496 -660 444 -660T390 -659Q387 -658 386 -655Q384 -645 384 -425V-282Q384 -176 377 -116T342 10Q325 54 301 92T255 155T214 196T183 222T171 232Q170 233 170 250T171 268Q171 269 191 284T240 331T300 407T354 524T383 679Q384 691 384 925Q384 1152 385 1155L389 1159Z"></path>
<path stroke-width="1" id="E1-MJSZ4-23AA" d="M384 150V266Q384 304 389 309Q391 310 455 310Q496 310 498 309Q502 308 503 298Q504 283 504 150Q504 32 504 12T499 -9H498Q496 -10 444 -10T390 -9Q386 -8 385 2Q384 17 384 150Z"></path>
</defs>
<g stroke="currentColor" fill="currentColor" stroke-width="0" transform="matrix(1 0 0 -1 0 0)">
<g transform="translate(167,0)">
<g transform="translate(-11,0)">
<g transform="translate(0,2577)">
 <use xlink:href="#E1-MJSZ4-23A7" x="0" y="-900"></use>
<g transform="translate(0,-1445.5893188959535) scale(1,1.8797084208873098)">
 <use xlink:href="#E1-MJSZ4-23AA"></use>
</g>
 <use xlink:href="#E1-MJSZ4-23A8" x="0" y="-2578"></use>
<g transform="translate(0,-3772.8554304216673) scale(1,1.8797084208873098)">
 <use xlink:href="#E1-MJSZ4-23AA"></use>
</g>
 <use xlink:href="#E1-MJSZ4-23A9" x="0" y="-3755"></use>
</g>
<g transform="translate(1056,0)">
<g transform="translate(-11,0)">
<g transform="translate(0,1742)">
 <use xlink:href="#E1-MJMATHI-69" x="0" y="0"></use>
 <use transform="scale(0.707)" xlink:href="#E1-MJMAIN-32" x="488" y="513"></use>
 <use xlink:href="#E1-MJMAIN-3D" x="1077" y="0"></use>
<g transform="translate(2133,0)">
 <use xlink:href="#E1-MJMATHI-6A" x="0" y="0"></use>
 <use transform="scale(0.707)" xlink:href="#E1-MJMAIN-32" x="583" y="513"></use>
</g>
 <use xlink:href="#E1-MJMAIN-3D" x="3277" y="0"></use>
<g transform="translate(4333,0)">
 <use xlink:href="#E1-MJMATHI-6B" x="0" y="0"></use>
 <use transform="scale(0.707)" xlink:href="#E1-MJMAIN-32" x="737" y="513"></use>
</g>
 <use xlink:href="#E1-MJMAIN-3D" x="5587" y="0"></use>
 <use xlink:href="#E1-MJMAIN-2212" x="6643" y="0"></use>
 <use xlink:href="#E1-MJMAIN-31" x="7421" y="0"></use>
</g>
<g transform="translate(0,537)">
 <use xlink:href="#E1-MJMATHI-69" x="0" y="0"></use>
 <use xlink:href="#E1-MJMATHI-6A" x="345" y="0"></use>
 <use xlink:href="#E1-MJMAIN-3D" x="1035" y="0"></use>
 <use xlink:href="#E1-MJMATHI-6B" x="2092" y="0"></use>
 <use xlink:href="#E1-MJMAIN-2C" x="2613" y="0"></use>
 <use xlink:href="#E1-MJMATHI-6A" x="3308" y="0"></use>
 <use xlink:href="#E1-MJMATHI-69" x="3721" y="0"></use>
 <use xlink:href="#E1-MJMAIN-3D" x="4344" y="0"></use>
 <use xlink:href="#E1-MJMAIN-2212" x="5400" y="0"></use>
 <use xlink:href="#E1-MJMATHI-6B" x="6179" y="0"></use>
</g>
<g transform="translate(0,-668)">
 <use xlink:href="#E1-MJMATHI-6A" x="0" y="0"></use>
 <use xlink:href="#E1-MJMATHI-6B" x="412" y="0"></use>
 <use xlink:href="#E1-MJMAIN-3D" x="1211" y="0"></use>
 <use xlink:href="#E1-MJMATHI-69" x="2268" y="0"></use>
 <use xlink:href="#E1-MJMAIN-2C" x="2613" y="0"></use>
 <use xlink:href="#E1-MJMATHI-6B" x="3308" y="0"></use>
 <use xlink:href="#E1-MJMATHI-6A" x="3830" y="0"></use>
 <use xlink:href="#E1-MJMAIN-3D" x="4520" y="0"></use>
 <use xlink:href="#E1-MJMAIN-2212" x="5576" y="0"></use>
 <use xlink:href="#E1-MJMATHI-69" x="6355" y="0"></use>
</g>
<g transform="translate(0,-1873)">
 <use xlink:href="#E1-MJMATHI-6B" x="0" y="0"></use>
 <use xlink:href="#E1-MJMATHI-69" x="521" y="0"></use>
 <use xlink:href="#E1-MJMAIN-3D" x="1144" y="0"></use>
 <use xlink:href="#E1-MJMATHI-6A" x="2201" y="0"></use>
 <use xlink:href="#E1-MJMAIN-2C" x="2613" y="0"></use>
 <use xlink:href="#E1-MJMATHI-6A" x="3308" y="0"></use>
 <use xlink:href="#E1-MJMATHI-69" x="3721" y="0"></use>
 <use xlink:href="#E1-MJMAIN-3D" x="4344" y="0"></use>
 <use xlink:href="#E1-MJMAIN-2212" x="5400" y="0"></use>
 <use xlink:href="#E1-MJMATHI-6A" x="6179" y="0"></use>
</g>
</g>
</g>
</g>
</g>
</g>
</svg>