<svg xmlns:xlink="http://www.w3.org/1999/xlink" width="32.731ex" height="2.843ex" style="font-size: 15px; vertical-align: -0.838ex; margin-right: -0.121ex;" viewBox="0 -863.1 14092.6 1223.9" role="img" focusable="false" xmlns="http://www.w3.org/2000/svg">
<defs>
<path stroke-width="1" id="E1-MJMAINB-71" d="M38 220Q38 273 54 314T95 380T152 421T211 443T264 449Q368 449 429 386L438 377L484 450H540V-132H609V-194H600Q582 -191 475 -191Q360 -191 351 -194H342V-132H411V42Q409 41 399 34T383 25T367 16T347 7T324 1T296 -4T264 -6Q162 -6 100 56T38 220ZM287 46Q368 46 417 127V301L412 312Q398 347 369 371T302 395Q282 395 263 388T225 362T194 308T182 221Q182 126 214 86T287 46Z"></path>
<path stroke-width="1" id="E1-MJMAIN-3D" d="M56 347Q56 360 70 367H707Q722 359 722 347Q722 336 708 328L390 327H72Q56 332 56 347ZM56 153Q56 168 72 173H708Q722 163 722 153Q722 140 707 133H70Q56 140 56 153Z"></path>
<path stroke-width="1" id="E1-MJMATHI-71" d="M33 157Q33 258 109 349T280 441Q340 441 372 389Q373 390 377 395T388 406T404 418Q438 442 450 442Q454 442 457 439T460 434Q460 425 391 149Q320 -135 320 -139Q320 -147 365 -148H390Q396 -156 396 -157T393 -175Q389 -188 383 -194H370Q339 -192 262 -192Q234 -192 211 -192T174 -192T157 -193Q143 -193 143 -185Q143 -182 145 -170Q149 -154 152 -151T172 -148Q220 -148 230 -141Q238 -136 258 -53T279 32Q279 33 272 29Q224 -10 172 -10Q117 -10 75 30T33 157ZM352 326Q329 405 277 405Q242 405 210 374T160 293Q131 214 119 129Q119 126 119 118T118 106Q118 61 136 44T179 26Q233 26 290 98L298 109L352 326Z"></path>
<path stroke-width="1" id="E1-MJMAIN-30" d="M96 585Q152 666 249 666Q297 666 345 640T423 548Q460 465 460 320Q460 165 417 83Q397 41 362 16T301 -15T250 -22Q224 -22 198 -16T137 16T82 83Q39 165 39 320Q39 494 96 585ZM321 597Q291 629 250 629Q208 629 178 597Q153 571 145 525T137 333Q137 175 145 125T181 46Q209 16 250 16Q290 16 318 46Q347 76 354 130T362 333Q362 478 354 524T321 597Z"></path>
<path stroke-width="1" id="E1-MJMAIN-2B" d="M56 237T56 250T70 270H369V420L370 570Q380 583 389 583Q402 583 409 568V270H707Q722 262 722 250T707 230H409V-68Q401 -82 391 -82H389H387Q375 -82 369 -68V230H70Q56 237 56 250Z"></path>
<path stroke-width="1" id="E1-MJMAIN-31" d="M213 578L200 573Q186 568 160 563T102 556H83V602H102Q149 604 189 617T245 641T273 663Q275 666 285 666Q294 666 302 660V361L303 61Q310 54 315 52T339 48T401 46H427V0H416Q395 3 257 3Q121 3 100 0H88V46H114Q136 46 152 46T177 47T193 50T201 52T207 57T213 61V578Z"></path>
<path stroke-width="1" id="E1-MJMATHI-69" d="M184 600Q184 624 203 642T247 661Q265 661 277 649T290 619Q290 596 270 577T226 557Q211 557 198 567T184 600ZM21 287Q21 295 30 318T54 369T98 420T158 442Q197 442 223 419T250 357Q250 340 236 301T196 196T154 83Q149 61 149 51Q149 26 166 26Q175 26 185 29T208 43T235 78T260 137Q263 149 265 151T282 153Q302 153 302 143Q302 135 293 112T268 61T223 11T161 -11Q129 -11 102 10T74 74Q74 91 79 106T122 220Q160 321 166 341T173 380Q173 404 156 404H154Q124 404 99 371T61 287Q60 286 59 284T58 281T56 279T53 278T49 278T41 278H27Q21 284 21 287Z"></path>
<path stroke-width="1" id="E1-MJMAINI-2B" d="M139 237T139 250T151 266T198 270H293H431L465 407Q469 424 476 452Q494 528 500 542T519 557Q526 557 532 552T538 538Q538 536 507 409T472 272Q472 270 604 270Q737 270 741 268Q753 261 753 250Q753 237 742 233T696 229Q687 229 655 229T599 230H462L461 226Q461 224 427 91T392 -47Q387 -57 374 -57Q367 -57 361 -51T355 -37Q355 -31 388 99L421 230H288Q267 230 238 230T199 229Q163 229 151 233Z"></path>
<path stroke-width="1" id="E1-MJMAINI-32" d="M159 404Q159 433 176 476T222 562T297 635T395 666Q466 666 508 617T551 497Q551 473 545 446Q534 388 482 333Q441 292 355 240T264 184Q216 151 179 101L171 91Q171 90 177 90Q206 90 269 77T366 64Q385 64 390 65Q418 73 441 98T475 156Q479 168 481 170T495 173H518Q524 167 524 166T521 152Q502 86 459 32T353 -22Q315 -22 259 15T172 53Q156 53 143 36T126 1L121 -16Q119 -22 98 -22H82Q76 -16 76 -13T80 5T98 50T132 111T189 178T274 242Q327 273 364 305T420 370T447 427T460 483Q466 514 466 538Q466 586 443 607T389 629Q338 629 293 584T226 487T204 399Q204 390 204 386T209 378T222 373Q258 376 282 422T307 493Q307 506 302 517T297 531Q297 537 308 546T327 551Q329 550 333 543T340 523T344 497Q344 450 306 393T216 336Q186 336 173 355T159 396V404Z"></path>
<path stroke-width="1" id="E1-MJMATHI-6A" d="M297 596Q297 627 318 644T361 661Q378 661 389 651T403 623Q403 595 384 576T340 557Q322 557 310 567T297 596ZM288 376Q288 405 262 405Q240 405 220 393T185 362T161 325T144 293L137 279Q135 278 121 278H107Q101 284 101 286T105 299Q126 348 164 391T252 441Q253 441 260 441T272 442Q296 441 316 432Q341 418 354 401T367 348V332L318 133Q267 -67 264 -75Q246 -125 194 -164T75 -204Q25 -204 7 -183T-12 -137Q-12 -110 7 -91T53 -71Q70 -71 82 -81T95 -112Q95 -148 63 -167Q69 -168 77 -168Q111 -168 139 -140T182 -74L193 -32Q204 11 219 72T251 197T278 308T289 365Q289 372 288 376Z"></path>
<path stroke-width="1" id="E1-MJMAINI-33" d="M296 531Q296 536 307 544T322 553Q330 553 338 534T346 501Q346 468 319 440T258 412Q232 412 216 430T200 478Q200 552 281 618Q345 666 416 666Q489 666 525 625T562 530Q562 473 525 419T430 335L416 329Q479 288 479 206Q479 142 440 89T344 7T229 -22Q173 -22 135 12T96 106Q96 192 157 192Q192 192 197 157Q197 134 184 117T142 96Q153 47 180 29Q201 15 232 15Q249 15 275 22Q307 34 331 57Q363 90 379 153T396 246Q396 261 393 272T384 290T371 301T355 308T341 311T326 312H316H307Q287 312 282 313T276 320Q276 323 279 337T283 352Q284 356 290 357T325 358Q364 359 368 360Q386 365 400 372T433 397T464 448T485 527Q487 535 487 556Q487 629 414 629Q350 629 298 580T245 476Q245 450 263 450H264Q280 450 294 463T308 496Q308 508 302 518T296 531Z"></path>
<path stroke-width="1" id="E1-MJMATHI-6B" d="M121 647Q121 657 125 670T137 683Q138 683 209 688T282 694Q294 694 294 686Q294 679 244 477Q194 279 194 272Q213 282 223 291Q247 309 292 354T362 415Q402 442 438 442Q468 442 485 423T503 369Q503 344 496 327T477 302T456 291T438 288Q418 288 406 299T394 328Q394 353 410 369T442 390L458 393Q446 405 434 405H430Q398 402 367 380T294 316T228 255Q230 254 243 252T267 246T293 238T320 224T342 206T359 180T365 147Q365 130 360 106T354 66Q354 26 381 26Q429 26 459 145Q461 153 479 153H483Q499 153 499 144Q499 139 496 130Q455 -11 378 -11Q333 -11 305 15T277 90Q277 108 280 121T283 145Q283 167 269 183T234 206T200 217T182 220H180Q168 178 159 139T145 81T136 44T129 20T122 7T111 -2Q98 -11 83 -11Q66 -11 57 -1T48 16Q48 26 85 176T158 471L195 616Q196 629 188 632T149 637H144Q134 637 131 637T124 640T121 647Z"></path>
<path stroke-width="1" id="E1-MJMAINI-3D" d="M776 357T776 347T761 327H470Q180 327 176 329Q164 334 164 347Q164 359 176 365Q179 367 470 367H761Q776 357 776 347ZM116 143T116 153T131 173H422Q713 173 717 171Q728 166 728 153T717 135Q713 133 422 133H131Q116 143 116 153Z"></path>
<path stroke-width="1" id="E1-MJMAINI-5B" d="M205 -221Q205 -239 194 -250H137H106Q73 -250 73 -242Q73 -232 194 255T321 747L324 750H381H417Q435 750 440 748T446 739Q446 730 443 723T437 712L434 710H350L349 706Q349 704 235 249T120 -208Q120 -210 159 -210Q166 -210 175 -210T187 -209Q205 -209 205 -221Z"></path>
<path stroke-width="1" id="E1-MJMATHI-73" d="M131 289Q131 321 147 354T203 415T300 442Q362 442 390 415T419 355Q419 323 402 308T364 292Q351 292 340 300T328 326Q328 342 337 354T354 372T367 378Q368 378 368 379Q368 382 361 388T336 399T297 405Q249 405 227 379T204 326Q204 301 223 291T278 274T330 259Q396 230 396 163Q396 135 385 107T352 51T289 7T195 -10Q118 -10 86 19T53 87Q53 126 74 143T118 160Q133 160 146 151T160 120Q160 94 142 76T111 58Q109 57 108 57T107 55Q108 52 115 47T146 34T201 27Q237 27 263 38T301 66T318 97T323 122Q323 150 302 164T254 181T195 196T148 231Q131 256 131 289Z"></path>
<path stroke-width="1" id="E1-MJMAINI-2C" d="M106 46Q106 68 121 90T167 120Q168 120 173 120T180 121Q232 121 232 59V54Q232 18 219 -20T186 -88T145 -143T109 -181T88 -194Q84 -194 77 -185T69 -171Q69 -168 70 -166T76 -161T85 -154T101 -139T124 -114Q146 -88 162 -58T183 -12T188 7Q187 7 183 5T172 2T156 0Q129 0 118 14T106 46Z"></path>
<path stroke-width="1" id="E1-MJMAINB-76" d="M401 444Q413 441 495 441Q568 441 574 444H580V382H510L409 156Q348 18 339 6Q331 -4 320 -4Q318 -4 313 -4T303 -3H288Q273 -3 264 12T221 102Q206 135 197 156L96 382H26V444H34Q49 441 145 441Q252 441 270 444H279V382H231L284 264Q335 149 338 149Q338 150 389 264T442 381Q442 382 418 382H394V444H401Z"></path>
<path stroke-width="1" id="E1-MJMAINI-5D" d="M227 721Q227 739 238 750H295H326Q359 750 359 742Q359 732 238 245T111 -247L108 -250H51H15Q-3 -250 -8 -248T-14 -239Q-14 -230 -11 -223T-5 -212L-2 -210H82L83 -206Q83 -204 197 251T312 708Q312 710 273 710Q266 710 257 710T245 709Q227 709 227 721Z"></path>
</defs>
<g stroke="currentColor" fill="currentColor" stroke-width="0" transform="matrix(1 0 0 -1 0 0)">
 <use xlink:href="#E1-MJMAINB-71" x="0" y="0"></use>
 <use xlink:href="#E1-MJMAIN-3D" x="887" y="0"></use>
<g transform="translate(1943,0)">
 <use xlink:href="#E1-MJMATHI-71" x="0" y="0"></use>
 <use transform="scale(0.707)" xlink:href="#E1-MJMAIN-30" x="631" y="-213"></use>
</g>
 <use xlink:href="#E1-MJMAIN-2B" x="3066" y="0"></use>
<g transform="translate(4066,0)">
 <use xlink:href="#E1-MJMATHI-71" x="0" y="0"></use>
 <use transform="scale(0.707)" xlink:href="#E1-MJMAIN-31" x="631" y="-213"></use>
</g>
 <use xlink:href="#E1-MJMATHI-69" x="4967" y="0"></use>
 <use xlink:href="#E1-MJMAINI-2B" x="5535" y="0"></use>
<g transform="translate(6524,0)">
 <use xlink:href="#E1-MJMATHI-71" x="0" y="0"></use>
 <use transform="scale(0.707)" xlink:href="#E1-MJMAINI-32" x="631" y="-213"></use>
</g>
 <use xlink:href="#E1-MJMATHI-6A" x="7461" y="0"></use>
 <use xlink:href="#E1-MJMAINI-2B" x="8095" y="0"></use>
<g transform="translate(9085,0)">
 <use xlink:href="#E1-MJMATHI-71" x="0" y="0"></use>
 <use transform="scale(0.707)" xlink:href="#E1-MJMAINI-33" x="631" y="-213"></use>
</g>
 <use xlink:href="#E1-MJMATHI-6B" x="10029" y="0"></use>
 <use xlink:href="#E1-MJMAINI-3D" x="10829" y="0"></use>
 <use xlink:href="#E1-MJMAINI-5B" x="11874" y="0"></use>
 <use xlink:href="#E1-MJMATHI-73" x="12181" y="0"></use>
 <use xlink:href="#E1-MJMAINI-2C" x="12651" y="0"></use>
 <use xlink:href="#E1-MJMAINB-76" x="13125" y="0"></use>
 <use xlink:href="#E1-MJMAINI-5D" x="13733" y="0"></use>
</g>
</svg>