<svg xmlns:xlink="http://www.w3.org/1999/xlink" width="20.356ex" height="2.843ex" style="font-size: 15px; vertical-align: -0.838ex;" viewBox="0 -863.1 8764.4 1223.9" role="img" focusable="false" xmlns="http://www.w3.org/2000/svg">
<defs>
<path stroke-width="1" id="E1-MJMAIN-2200" d="M0 673Q0 684 7 689T20 694Q32 694 38 680T82 567L126 451H430L473 566Q483 593 494 622T512 668T519 685Q524 694 538 694Q556 692 556 674Q556 670 426 329T293 -15Q288 -22 278 -22T263 -15Q260 -11 131 328T0 673ZM414 410Q414 411 278 411T142 410L278 55L414 410Z"></path>
<path stroke-width="1" id="E1-MJMAINB-58" d="M327 0Q306 3 174 3Q52 3 43 0H33V62H98L162 63L360 333L157 624H48V686H59Q80 683 217 683Q368 683 395 686H408V624H335L393 540L452 458L573 623Q573 624 528 624H483V686H494Q515 683 646 683Q769 683 778 686H787V624H658L575 511Q493 398 493 397L508 376Q522 356 553 312T611 229L727 62H835V0H824Q803 3 667 3Q516 3 489 0H476V62H513L549 63L401 274L247 63Q247 62 292 62H338V0H327Z"></path>
<path stroke-width="1" id="E1-MJMAIN-2208" d="M84 250Q84 372 166 450T360 539Q361 539 377 539T419 540T469 540H568Q583 532 583 520Q583 511 570 501L466 500Q355 499 329 494Q280 482 242 458T183 409T147 354T129 306T124 272V270H568Q583 262 583 250T568 230H124V228Q124 207 134 177T167 112T231 48T328 7Q355 1 466 0H570Q583 -10 583 -20Q583 -32 568 -40H471Q464 -40 446 -40T417 -41Q262 -41 172 45Q84 127 84 250Z"></path>
<path stroke-width="1" id="E1-MJMATHI-56" d="M52 648Q52 670 65 683H76Q118 680 181 680Q299 680 320 683H330Q336 677 336 674T334 656Q329 641 325 637H304Q282 635 274 635Q245 630 242 620Q242 618 271 369T301 118L374 235Q447 352 520 471T595 594Q599 601 599 609Q599 633 555 637Q537 637 537 648Q537 649 539 661Q542 675 545 679T558 683Q560 683 570 683T604 682T668 681Q737 681 755 683H762Q769 676 769 672Q769 655 760 640Q757 637 743 637Q730 636 719 635T698 630T682 623T670 615T660 608T652 599T645 592L452 282Q272 -9 266 -16Q263 -18 259 -21L241 -22H234Q216 -22 216 -15Q213 -9 177 305Q139 623 138 626Q133 637 76 637H59Q52 642 52 648Z"></path>
<path stroke-width="1" id="E1-MJMAIN-2C" d="M78 35T78 60T94 103T137 121Q165 121 187 96T210 8Q210 -27 201 -60T180 -117T154 -158T130 -185T117 -194Q113 -194 104 -185T95 -172Q95 -168 106 -156T131 -126T157 -76T173 -3V9L172 8Q170 7 167 6T161 3T152 1T140 0Q113 0 96 17Z"></path>
<path stroke-width="1" id="E1-MJMAIN-5B" d="M118 -250V750H255V710H158V-210H255V-250H118Z"></path>
<path stroke-width="1" id="E1-MJMAIN-5D" d="M22 710V750H159V-250H22V-210H119V710H22Z"></path>
<path stroke-width="1" id="E1-MJMAIN-3D" d="M56 347Q56 360 70 367H707Q722 359 722 347Q722 336 708 328L390 327H72Q56 332 56 347ZM56 153Q56 168 72 173H708Q722 163 722 153Q722 140 707 133H70Q56 140 56 153Z"></path>
<path stroke-width="1" id="E1-MJMAINB-30" d="M266 654H280H282Q500 654 524 418Q529 370 529 320Q529 125 456 52Q397 -10 287 -10Q110 -10 63 154Q45 212 45 316Q45 504 113 585Q140 618 185 636T266 654ZM374 548Q347 604 286 604Q247 604 218 575Q197 552 193 511T188 311Q188 159 196 116Q202 87 225 64T287 41Q339 41 367 87Q379 107 382 152T386 329Q386 518 374 548Z"></path>
</defs>
<g stroke="currentColor" fill="currentColor" stroke-width="0" transform="matrix(1 0 0 -1 0 0)">
 <use xlink:href="#E1-MJMAIN-2200" x="0" y="0"></use>
 <use xlink:href="#E1-MJMAINB-58" x="556" y="0"></use>
 <use xlink:href="#E1-MJMAIN-2208" x="1703" y="0"></use>
 <use xlink:href="#E1-MJMATHI-56" x="2649" y="0"></use>
 <use xlink:href="#E1-MJMAIN-2C" x="3418" y="0"></use>
 <use xlink:href="#E1-MJMAIN-5B" x="4113" y="0"></use>
 <use xlink:href="#E1-MJMAINB-58" x="4392" y="0"></use>
 <use xlink:href="#E1-MJMAIN-2C" x="5261" y="0"></use>
 <use xlink:href="#E1-MJMAINB-58" x="5706" y="0"></use>
 <use xlink:href="#E1-MJMAIN-5D" x="6576" y="0"></use>
 <use xlink:href="#E1-MJMAIN-3D" x="7132" y="0"></use>
 <use xlink:href="#E1-MJMAINB-30" x="8188" y="0"></use>
</g>
</svg>